<?xml version="1.0" encoding="UTF-8" standalone="no"?>
<!DOCTYPE svg PUBLIC "-//W3C//DTD SVG 1.1//EN" "http://www.w3.org/Graphics/SVG/1.1/DTD/svg11.dtd">
<svg xmlns="http://www.w3.org/2000/svg" version="1.1" viewBox="0.00 0.00 1414.00 1414.00">
<g stroke-width="2.00" fill="none" stroke-linecap="butt">
<path stroke="#a3cda3" vector-effect="non-scaling-stroke" d="
  M 459.53 588.93
  Q 457.89 599.58 458.43 611.54
  Q 459.60 637.63 473.94 659.07
  Q 476.78 663.31 479.98 666.91
  Q 482.33 669.55 486.50 673.71
  Q 507.16 694.31 537.77 699.00
  Q 557.61 702.03 576.48 696.92
  Q 588.67 693.61 600.19 685.92
  Q 626.04 668.65 637.29 640.48
  Q 641.18 630.72 642.63 621.26
  Q 644.76 607.29 642.97 594.21
  Q 638.48 561.32 615.88 538.73
  Q 608.88 531.74 600.52 526.32
  Q 578.07 511.75 551.36 511.72
  Q 522.46 511.68 499.22 527.94
  Q 475.64 544.44 465.07 569.78
  Q 460.99 579.55 459.53 588.93"
/>
<path stroke="#a3cda3" vector-effect="non-scaling-stroke" d="
  M 394.23 575.59
  C 416.63 593.68 429.78 622.74 431.80 651.33
  Q 431.93 653.17 432.82 651.56
  Q 443.34 632.69 445.21 611.27
  Q 446.62 595.23 441.77 579.67
  Q 431.40 546.39 401.44 528.50
  Q 384.36 518.30 364.25 515.56
  C 360.45 515.04 356.26 515.02 352.26 514.81
  Q 347.20 514.55 343.25 514.53
  Q 323.36 514.46 296.17 514.45
  Q 293.68 514.45 292.93 514.94
  C 290.14 516.77 289.09 517.64 289.10 521.69
  Q 289.11 536.41 288.88 552.32
  Q 288.78 559.29 295.10 559.41
  Q 299.66 559.50 342.33 559.27
  Q 355.08 559.21 360.13 559.96
  Q 368.99 561.29 377.33 565.21
  Q 387.02 569.77 394.23 575.59"
/>
<path stroke="#a3cda3" vector-effect="non-scaling-stroke" d="
  M 290.48 582.87
  C 290.27 583.94 289.79 584.19 289.81 585.60
  C 289.85 591.01 289.46 596.59 289.45 601.80
  Q 289.39 641.58 289.34 689.97
  C 289.34 693.44 290.24 695.52 292.80 697.41
  Q 294.34 698.54 298.49 698.55
  Q 348.24 698.58 352.53 698.61
  Q 360.65 698.67 366.44 697.85
  Q 375.01 696.63 380.20 695.42
  C 388.42 693.49 395.20 689.80 399.05 682.06
  Q 403.51 673.10 404.05 664.55
  Q 405.69 638.57 395.02 615.16
  A 0.42 0.41 -12.0 0 0 394.64 614.92
  Q 394.18 614.92 394.05 615.56
  C 390.30 633.39 376.23 649.92 358.06 653.02
  Q 347.64 654.79 331.77 654.38
  Q 331.20 654.37 331.20 653.80
  Q 331.23 628.56 331.18 590.03
  Q 331.18 587.14 331.67 584.49
  Q 331.74 584.12 331.47 583.86
  L 328.64 581.03
  Q 328.21 580.60 327.60 580.60
  Q 321.09 580.60 294.08 580.62
  Q 293.20 580.62 292.54 581.02
  Q 291.83 581.45 291.18 581.99
  Q 290.56 582.52 290.48 582.87"
/>
<path stroke="#a3cda3" vector-effect="non-scaling-stroke" d="
  M 729.44 597.79
  A 6.75 6.75 0.0 0 0 722.69 591.04
  L 665.35 591.04
  A 6.75 6.75 0.0 0 0 658.60 597.79
  L 658.60 626.45
  A 6.75 6.75 0.0 0 0 665.35 633.20
  L 722.69 633.20
  A 6.75 6.75 0.0 0 0 729.44 626.45
  L 729.44 597.79"
/>
<path stroke="#a3cda3" vector-effect="non-scaling-stroke" d="
  M 927.50 882.52
  C 928.22 882.05 928.96 881.86 929.66 881.30
  Q 939.30 873.55 947.25 862.75
  Q 963.09 841.22 965.56 815.23
  C 967.79 791.75 960.50 768.13 946.46 749.32
  Q 940.49 741.33 932.88 734.99
  Q 924.11 727.69 916.00 723.58
  Q 892.83 711.83 865.53 713.59
  Q 855.99 714.20 845.93 717.26
  Q 833.84 720.95 825.71 725.48
  Q 801.37 739.04 788.02 765.15
  Q 783.59 773.82 781.10 783.87
  Q 773.01 816.49 786.81 846.74
  Q 790.90 855.70 797.05 863.84
  C 807.38 877.49 822.23 889.23 838.55 895.22
  Q 872.92 907.83 907.04 894.50
  Q 916.05 890.98 927.10 883.04
  A 0.49 0.09 -10.5 0 1 927.36 882.94
  Q 927.49 882.91 927.43 882.71
  Q 927.39 882.59 927.50 882.52"
/>
<path stroke="#a3cda3" vector-effect="non-scaling-stroke" d="
  M 722.05 760.24
  C 722.41 763.31 722.20 767.29 722.18 769.81
  Q 721.98 793.35 722.20 892.11
  Q 722.21 894.18 722.69 895.32
  Q 723.38 896.93 724.70 897.99
  Q 726.25 899.23 729.16 899.21
  Q 754.62 899.02 757.32 898.97
  Q 758.85 898.94 761.13 896.88
  C 764.50 893.83 764.14 892.35 764.14 887.49
  Q 764.17 772.55 764.08 724.02
  C 764.08 720.49 761.78 716.13 757.75 716.17
  Q 749.75 716.26 723.63 716.19
  Q 676.55 716.07 655.03 716.27
  Q 648.90 716.32 635.03 716.15
  Q 611.15 715.85 591.56 716.09
  Q 588.34 716.13 586.73 717.40
  Q 583.67 719.82 583.65 724.25
  Q 583.58 744.96 583.65 753.09
  Q 583.67 756.61 586.68 758.81
  Q 587.08 759.10 587.57 759.10
  L 721.40 759.66
  A 0.66 0.65 86.5 0 1 722.05 760.24"
/>
<path stroke="#a3cda3" vector-effect="non-scaling-stroke" d="
  M 1083.95 806.84
  Q 1081.54 804.98 1079.26 802.86
  Q 1063.91 788.58 1055.24 780.76
  Q 1003.35 734.04 984.93 717.83
  Q 984.00 717.02 983.51 716.66
  C 981.92 715.50 979.85 716.04 978.91 717.70
  Q 978.37 718.66 978.35 720.67
  Q 978.30 725.12 978.36 748.77
  Q 978.49 796.51 978.32 847.75
  Q 978.30 852.79 978.07 867.74
  Q 977.87 880.50 978.27 892.31
  Q 978.37 895.43 981.06 897.82
  Q 982.58 899.17 986.38 899.07
  Q 992.01 898.93 1014.75 899.13
  C 1017.11 899.15 1018.55 897.37 1019.69 895.60
  Q 1020.42 894.46 1020.42 892.73
  Q 1020.49 839.69 1020.43 810.17
  A 0.38 0.38 0.0 0 1 1021.06 809.88
  Q 1048.09 833.79 1069.74 853.75
  Q 1073.42 857.14 1084.07 866.62
  Q 1101.76 882.38 1119.27 898.09
  Q 1122.47 900.95 1126.26 898.50
  A 0.65 0.64 73.6 0 0 1126.55 897.96
  Q 1126.57 810.50 1126.64 723.25
  Q 1126.65 718.93 1124.39 717.24
  Q 1122.70 715.97 1118.81 715.94
  Q 1112.78 715.89 1091.74 715.99
  Q 1086.85 716.02 1084.82 719.09
  Q 1083.85 720.55 1083.83 725.71
  Q 1083.74 759.53 1084.23 806.70
  A 0.18 0.17 -71.2 0 1 1083.95 806.84"
/>
<path stroke="#a3cda3" vector-effect="non-scaling-stroke" d="
  M 396.73 806.54
  Q 376.27 788.57 357.77 772.13
  Q 352.28 767.25 345.93 761.92
  C 343.54 759.92 341.98 757.66 339.89 756.16
  Q 337.79 754.65 330.98 748.46
  Q 323.40 741.57 322.40 740.69
  Q 306.71 726.79 296.74 717.53
  Q 295.57 716.44 294.14 716.27
  Q 293.61 716.21 293.21 716.56
  Q 292.00 717.60 290.67 719.17
  Q 289.81 720.18 289.80 722.58
  Q 289.73 731.86 289.80 756.50
  Q 290.00 833.60 289.81 890.75
  Q 289.80 895.49 292.99 897.74
  Q 294.94 899.12 299.34 899.12
  Q 321.16 899.16 324.71 899.18
  Q 327.20 899.20 328.31 898.49
  Q 329.82 897.52 331.31 896.05
  Q 332.43 894.94 332.44 892.09
  Q 332.55 830.03 332.48 812.21
  C 332.48 811.50 332.15 810.51 331.98 809.86
  Q 331.69 808.76 332.54 809.52
  Q 382.75 854.39 419.04 886.79
  Q 423.53 890.80 433.29 899.13
  Q 434.19 899.90 435.79 899.53
  Q 439.03 898.79 439.04 895.83
  Q 439.35 829.24 439.25 724.51
  Q 439.24 716.86 432.23 716.39
  Q 426.45 716.00 404.28 716.33
  Q 400.38 716.39 398.77 718.82
  Q 397.91 720.12 397.81 720.26
  Q 397.16 721.19 397.16 721.88
  Q 397.07 750.57 396.98 806.42
  A 0.15 0.15 0.0 0 1 396.73 806.54"
/>
<path stroke="#a3cda3" vector-effect="non-scaling-stroke" d="
  M 465.79 850.49
  Q 462.80 856.59 458.50 865.94
  Q 457.70 867.68 456.41 869.95
  Q 455.40 871.73 454.46 874.05
  C 452.02 880.06 448.01 887.36 446.17 891.44
  C 445.58 892.76 445.45 894.84 446.65 896.17
  C 448.68 898.44 450.47 899.51 453.68 899.40
  Q 463.12 899.07 484.49 899.23
  Q 490.65 899.28 492.76 894.78
  Q 511.47 854.91 525.58 826.13
  Q 527.59 822.04 531.29 813.98
  A 1.40 0.72 55.4 0 1 533.03 814.91
  Q 553.79 858.25 570.18 893.66
  Q 571.67 896.87 572.56 897.49
  Q 574.86 899.09 578.53 899.15
  Q 606.99 899.62 611.71 899.20
  Q 615.65 898.84 616.59 895.65
  Q 617.15 893.73 615.83 890.83
  Q 597.66 850.82 579.66 812.92
  Q 574.83 802.77 571.29 795.05
  Q 561.35 773.35 552.22 754.12
  Q 542.15 732.90 537.87 721.92
  Q 535.90 716.88 531.35 717.35
  C 529.72 717.52 528.63 718.31 528.00 719.75
  Q 521.28 735.07 514.74 748.05
  Q 509.55 758.33 505.92 765.99
  Q 489.51 800.54 473.25 835.15
  Q 472.25 837.28 465.79 850.49"
/>
<path stroke="#a3cda3" vector-effect="non-scaling-stroke" d="
  M 630.22 839.10
  Q 630.11 890.68 630.14 892.88
  Q 630.18 895.37 630.65 896.01
  Q 631.66 897.37 632.97 898.48
  Q 634.08 899.42 637.34 899.41
  Q 660.94 899.35 663.28 899.36
  Q 668.16 899.38 670.52 896.29
  Q 671.84 894.55 671.88 889.40
  Q 672.09 864.14 672.15 839.19
  Q 672.20 814.24 672.10 788.98
  Q 672.08 783.83 670.77 782.08
  Q 668.42 778.98 663.54 778.98
  Q 661.20 778.98 637.60 778.82
  Q 634.34 778.79 633.23 779.73
  Q 631.91 780.83 630.90 782.19
  Q 630.42 782.83 630.37 785.32
  Q 630.33 787.52 630.22 839.10"
/>
<path stroke="#a3cda3" vector-effect="non-scaling-stroke" d="
  M 566.7117 656.0210
  A 52.05 51.51 72.5 0 0 600.1860 590.8906
  A 52.05 51.51 72.5 0 0 535.4083 556.7390
  A 52.05 51.51 72.5 0 0 501.9340 621.8694
  A 52.05 51.51 72.5 0 0 566.7117 656.0210"
/>
<path stroke="#a3cda3" vector-effect="non-scaling-stroke" d="
  M 901.40 849.76
  Q 907.62 845.12 914.86 835.15
  Q 919.72 828.45 922.36 818.26
  Q 924.60 809.60 923.26 800.15
  Q 921.50 787.71 914.44 777.82
  Q 903.44 762.38 885.56 757.70
  Q 874.48 754.80 864.38 756.70
  Q 859.68 757.59 859.30 757.65
  Q 856.92 758.04 854.34 759.07
  Q 842.38 763.83 833.66 773.17
  Q 826.03 781.34 822.92 791.02
  Q 818.20 805.71 822.15 820.40
  C 827.40 839.91 842.07 853.66 862.09 857.99
  Q 875.07 860.79 887.95 856.72
  Q 889.10 856.35 896.49 853.24
  Q 896.95 853.05 897.27 852.67
  Q 897.49 852.40 897.78 852.20
  C 898.64 851.57 899.46 852.03 900.07 850.74
  A 1.30 0.99 -2.4 0 1 900.78 850.15
  Q 900.98 850.08 901.40 849.76"
/>
</g>
<path fill="#fdfdfd" d="
  M 1414.00 0.00
  L 1414.00 1414.00
  L 0.00 1414.00
  L 0.00 0.00
  L 1414.00 0.00
  Z
  M 459.53 588.93
  Q 457.89 599.58 458.43 611.54
  Q 459.60 637.63 473.94 659.07
  Q 476.78 663.31 479.98 666.91
  Q 482.33 669.55 486.50 673.71
  Q 507.16 694.31 537.77 699.00
  Q 557.61 702.03 576.48 696.92
  Q 588.67 693.61 600.19 685.92
  Q 626.04 668.65 637.29 640.48
  Q 641.18 630.72 642.63 621.26
  Q 644.76 607.29 642.97 594.21
  Q 638.48 561.32 615.88 538.73
  Q 608.88 531.74 600.52 526.32
  Q 578.07 511.75 551.36 511.72
  Q 522.46 511.68 499.22 527.94
  Q 475.64 544.44 465.07 569.78
  Q 460.99 579.55 459.53 588.93
  Z
  M 394.23 575.59
  C 416.63 593.68 429.78 622.74 431.80 651.33
  Q 431.93 653.17 432.82 651.56
  Q 443.34 632.69 445.21 611.27
  Q 446.62 595.23 441.77 579.67
  Q 431.40 546.39 401.44 528.50
  Q 384.36 518.30 364.25 515.56
  C 360.45 515.04 356.26 515.02 352.26 514.81
  Q 347.20 514.55 343.25 514.53
  Q 323.36 514.46 296.17 514.45
  Q 293.68 514.45 292.93 514.94
  C 290.14 516.77 289.09 517.64 289.10 521.69
  Q 289.11 536.41 288.88 552.32
  Q 288.78 559.29 295.10 559.41
  Q 299.66 559.50 342.33 559.27
  Q 355.08 559.21 360.13 559.96
  Q 368.99 561.29 377.33 565.21
  Q 387.02 569.77 394.23 575.59
  Z
  M 290.48 582.87
  C 290.27 583.94 289.79 584.19 289.81 585.60
  C 289.85 591.01 289.46 596.59 289.45 601.80
  Q 289.39 641.58 289.34 689.97
  C 289.34 693.44 290.24 695.52 292.80 697.41
  Q 294.34 698.54 298.49 698.55
  Q 348.24 698.58 352.53 698.61
  Q 360.65 698.67 366.44 697.85
  Q 375.01 696.63 380.20 695.42
  C 388.42 693.49 395.20 689.80 399.05 682.06
  Q 403.51 673.10 404.05 664.55
  Q 405.69 638.57 395.02 615.16
  A 0.42 0.41 -12.0 0 0 394.64 614.92
  Q 394.18 614.92 394.05 615.56
  C 390.30 633.39 376.23 649.92 358.06 653.02
  Q 347.64 654.79 331.77 654.38
  Q 331.20 654.37 331.20 653.80
  Q 331.23 628.56 331.18 590.03
  Q 331.18 587.14 331.67 584.49
  Q 331.74 584.12 331.47 583.86
  L 328.64 581.03
  Q 328.21 580.60 327.60 580.60
  Q 321.09 580.60 294.08 580.62
  Q 293.20 580.62 292.54 581.02
  Q 291.83 581.45 291.18 581.99
  Q 290.56 582.52 290.48 582.87
  Z
  M 729.44 597.79
  A 6.75 6.75 0.0 0 0 722.69 591.04
  L 665.35 591.04
  A 6.75 6.75 0.0 0 0 658.60 597.79
  L 658.60 626.45
  A 6.75 6.75 0.0 0 0 665.35 633.20
  L 722.69 633.20
  A 6.75 6.75 0.0 0 0 729.44 626.45
  L 729.44 597.79
  Z
  M 927.50 882.52
  C 928.22 882.05 928.96 881.86 929.66 881.30
  Q 939.30 873.55 947.25 862.75
  Q 963.09 841.22 965.56 815.23
  C 967.79 791.75 960.50 768.13 946.46 749.32
  Q 940.49 741.33 932.88 734.99
  Q 924.11 727.69 916.00 723.58
  Q 892.83 711.83 865.53 713.59
  Q 855.99 714.20 845.93 717.26
  Q 833.84 720.95 825.71 725.48
  Q 801.37 739.04 788.02 765.15
  Q 783.59 773.82 781.10 783.87
  Q 773.01 816.49 786.81 846.74
  Q 790.90 855.70 797.05 863.84
  C 807.38 877.49 822.23 889.23 838.55 895.22
  Q 872.92 907.83 907.04 894.50
  Q 916.05 890.98 927.10 883.04
  A 0.49 0.09 -10.5 0 1 927.36 882.94
  Q 927.49 882.91 927.43 882.71
  Q 927.39 882.59 927.50 882.52
  Z
  M 722.05 760.24
  C 722.41 763.31 722.20 767.29 722.18 769.81
  Q 721.98 793.35 722.20 892.11
  Q 722.21 894.18 722.69 895.32
  Q 723.38 896.93 724.70 897.99
  Q 726.25 899.23 729.16 899.21
  Q 754.62 899.02 757.32 898.97
  Q 758.85 898.94 761.13 896.88
  C 764.50 893.83 764.14 892.35 764.14 887.49
  Q 764.17 772.55 764.08 724.02
  C 764.08 720.49 761.78 716.13 757.75 716.17
  Q 749.75 716.26 723.63 716.19
  Q 676.55 716.07 655.03 716.27
  Q 648.90 716.32 635.03 716.15
  Q 611.15 715.85 591.56 716.09
  Q 588.34 716.13 586.73 717.40
  Q 583.67 719.82 583.65 724.25
  Q 583.58 744.96 583.65 753.09
  Q 583.67 756.61 586.68 758.81
  Q 587.08 759.10 587.57 759.10
  L 721.40 759.66
  A 0.66 0.65 86.5 0 1 722.05 760.24
  Z
  M 1083.95 806.84
  Q 1081.54 804.98 1079.26 802.86
  Q 1063.91 788.58 1055.24 780.76
  Q 1003.35 734.04 984.93 717.83
  Q 984.00 717.02 983.51 716.66
  C 981.92 715.50 979.85 716.04 978.91 717.70
  Q 978.37 718.66 978.35 720.67
  Q 978.30 725.12 978.36 748.77
  Q 978.49 796.51 978.32 847.75
  Q 978.30 852.79 978.07 867.74
  Q 977.87 880.50 978.27 892.31
  Q 978.37 895.43 981.06 897.82
  Q 982.58 899.17 986.38 899.07
  Q 992.01 898.93 1014.75 899.13
  C 1017.11 899.15 1018.55 897.37 1019.69 895.60
  Q 1020.42 894.46 1020.42 892.73
  Q 1020.49 839.69 1020.43 810.17
  A 0.38 0.38 0.0 0 1 1021.06 809.88
  Q 1048.09 833.79 1069.74 853.75
  Q 1073.42 857.14 1084.07 866.62
  Q 1101.76 882.38 1119.27 898.09
  Q 1122.47 900.95 1126.26 898.50
  A 0.65 0.64 73.6 0 0 1126.55 897.96
  Q 1126.57 810.50 1126.64 723.25
  Q 1126.65 718.93 1124.39 717.24
  Q 1122.70 715.97 1118.81 715.94
  Q 1112.78 715.89 1091.74 715.99
  Q 1086.85 716.02 1084.82 719.09
  Q 1083.85 720.55 1083.83 725.71
  Q 1083.74 759.53 1084.23 806.70
  A 0.18 0.17 -71.2 0 1 1083.95 806.84
  Z
  M 396.73 806.54
  Q 376.27 788.57 357.77 772.13
  Q 352.28 767.25 345.93 761.92
  C 343.54 759.92 341.98 757.66 339.89 756.16
  Q 337.79 754.65 330.98 748.46
  Q 323.40 741.57 322.40 740.69
  Q 306.71 726.79 296.74 717.53
  Q 295.57 716.44 294.14 716.27
  Q 293.61 716.21 293.21 716.56
  Q 292.00 717.60 290.67 719.17
  Q 289.81 720.18 289.80 722.58
  Q 289.73 731.86 289.80 756.50
  Q 290.00 833.60 289.81 890.75
  Q 289.80 895.49 292.99 897.74
  Q 294.94 899.12 299.34 899.12
  Q 321.16 899.16 324.71 899.18
  Q 327.20 899.20 328.31 898.49
  Q 329.82 897.52 331.31 896.05
  Q 332.43 894.94 332.44 892.09
  Q 332.55 830.03 332.48 812.21
  C 332.48 811.50 332.15 810.51 331.98 809.86
  Q 331.69 808.76 332.54 809.52
  Q 382.75 854.39 419.04 886.79
  Q 423.53 890.80 433.29 899.13
  Q 434.19 899.90 435.79 899.53
  Q 439.03 898.79 439.04 895.83
  Q 439.35 829.24 439.25 724.51
  Q 439.24 716.86 432.23 716.39
  Q 426.45 716.00 404.28 716.33
  Q 400.38 716.39 398.77 718.82
  Q 397.91 720.12 397.81 720.26
  Q 397.16 721.19 397.16 721.88
  Q 397.07 750.57 396.98 806.42
  A 0.15 0.15 0.0 0 1 396.73 806.54
  Z
  M 465.79 850.49
  Q 462.80 856.59 458.50 865.94
  Q 457.70 867.68 456.41 869.95
  Q 455.40 871.73 454.46 874.05
  C 452.02 880.06 448.01 887.36 446.17 891.44
  C 445.58 892.76 445.45 894.84 446.65 896.17
  C 448.68 898.44 450.47 899.51 453.68 899.40
  Q 463.12 899.07 484.49 899.23
  Q 490.65 899.28 492.76 894.78
  Q 511.47 854.91 525.58 826.13
  Q 527.59 822.04 531.29 813.98
  A 1.40 0.72 55.4 0 1 533.03 814.91
  Q 553.79 858.25 570.18 893.66
  Q 571.67 896.87 572.56 897.49
  Q 574.86 899.09 578.53 899.15
  Q 606.99 899.62 611.71 899.20
  Q 615.65 898.84 616.59 895.65
  Q 617.15 893.73 615.83 890.83
  Q 597.66 850.82 579.66 812.92
  Q 574.83 802.77 571.29 795.05
  Q 561.35 773.35 552.22 754.12
  Q 542.15 732.90 537.87 721.92
  Q 535.90 716.88 531.35 717.35
  C 529.72 717.52 528.63 718.31 528.00 719.75
  Q 521.28 735.07 514.74 748.05
  Q 509.55 758.33 505.92 765.99
  Q 489.51 800.54 473.25 835.15
  Q 472.25 837.28 465.79 850.49
  Z
  M 630.22 839.10
  Q 630.11 890.68 630.14 892.88
  Q 630.18 895.37 630.65 896.01
  Q 631.66 897.37 632.97 898.48
  Q 634.08 899.42 637.34 899.41
  Q 660.94 899.35 663.28 899.36
  Q 668.16 899.38 670.52 896.29
  Q 671.84 894.55 671.88 889.40
  Q 672.09 864.14 672.15 839.19
  Q 672.20 814.24 672.10 788.98
  Q 672.08 783.83 670.77 782.08
  Q 668.42 778.98 663.54 778.98
  Q 661.20 778.98 637.60 778.82
  Q 634.34 778.79 633.23 779.73
  Q 631.91 780.83 630.90 782.19
  Q 630.42 782.83 630.37 785.32
  Q 630.33 787.52 630.22 839.10
  Z"
/>
<path fill="#489c48" d="
  M 465.07 569.78
  Q 475.64 544.44 499.22 527.94
  Q 522.46 511.68 551.36 511.72
  Q 578.07 511.75 600.52 526.32
  Q 608.88 531.74 615.88 538.73
  Q 638.48 561.32 642.97 594.21
  Q 644.76 607.29 642.63 621.26
  Q 641.18 630.72 637.29 640.48
  Q 626.04 668.65 600.19 685.92
  Q 588.67 693.61 576.48 696.92
  Q 557.61 702.03 537.77 699.00
  Q 507.16 694.31 486.50 673.71
  Q 482.33 669.55 479.98 666.91
  Q 476.78 663.31 473.94 659.07
  Q 459.60 637.63 458.43 611.54
  Q 457.89 599.58 459.53 588.93
  Q 460.99 579.55 465.07 569.78
  Z
  M 566.7117 656.0210
  A 52.05 51.51 72.5 0 0 600.1860 590.8906
  A 52.05 51.51 72.5 0 0 535.4083 556.7390
  A 52.05 51.51 72.5 0 0 501.9340 621.8694
  A 52.05 51.51 72.5 0 0 566.7117 656.0210
  Z"
/>
<path fill="#489c48" d="
  M 394.23 575.59
  Q 387.02 569.77 377.33 565.21
  Q 368.99 561.29 360.13 559.96
  Q 355.08 559.21 342.33 559.27
  Q 299.66 559.50 295.10 559.41
  Q 288.78 559.29 288.88 552.32
  Q 289.11 536.41 289.10 521.69
  C 289.09 517.64 290.14 516.77 292.93 514.94
  Q 293.68 514.45 296.17 514.45
  Q 323.36 514.46 343.25 514.53
  Q 347.20 514.55 352.26 514.81
  C 356.26 515.02 360.45 515.04 364.25 515.56
  Q 384.36 518.30 401.44 528.50
  Q 431.40 546.39 441.77 579.67
  Q 446.62 595.23 445.21 611.27
  Q 443.34 632.69 432.82 651.56
  Q 431.93 653.17 431.80 651.33
  C 429.78 622.74 416.63 593.68 394.23 575.59
  Z"
/>
<ellipse fill="#fdfdfd" cx="0.00" cy="0.00" transform="translate(551.06,606.38) rotate(72.5)" rx="52.05" ry="51.51"/>
<path fill="#489c48" d="
  M 291.18 581.99
  Q 291.83 581.45 292.54 581.02
  Q 293.20 580.62 294.08 580.62
  Q 321.09 580.60 327.60 580.60
  Q 328.21 580.60 328.64 581.03
  L 331.47 583.86
  Q 331.74 584.12 331.67 584.49
  Q 331.18 587.14 331.18 590.03
  Q 331.23 628.56 331.20 653.80
  Q 331.20 654.37 331.77 654.38
  Q 347.64 654.79 358.06 653.02
  C 376.23 649.92 390.30 633.39 394.05 615.56
  Q 394.18 614.92 394.64 614.92
  A 0.42 0.41 -12.0 0 1 395.02 615.16
  Q 405.69 638.57 404.05 664.55
  Q 403.51 673.10 399.05 682.06
  C 395.20 689.80 388.42 693.49 380.20 695.42
  Q 375.01 696.63 366.44 697.85
  Q 360.65 698.67 352.53 698.61
  Q 348.24 698.58 298.49 698.55
  Q 294.34 698.54 292.80 697.41
  C 290.24 695.52 289.34 693.44 289.34 689.97
  Q 289.39 641.58 289.45 601.80
  C 289.46 596.59 289.85 591.01 289.81 585.60
  C 289.79 584.19 290.27 583.94 290.48 582.87
  Q 290.56 582.52 291.18 581.99
  Z"
/>
<rect fill="#489c48" x="658.60" y="591.04" width="70.84" height="42.16" rx="6.75"/>
<path fill="#489c48" d="
  M 927.43 882.71
  Q 927.49 882.91 927.36 882.94
  A 0.49 0.09 -10.5 0 0 927.10 883.04
  Q 916.05 890.98 907.04 894.50
  Q 872.92 907.83 838.55 895.22
  C 822.23 889.23 807.38 877.49 797.05 863.84
  Q 790.90 855.70 786.81 846.74
  Q 773.01 816.49 781.10 783.87
  Q 783.59 773.82 788.02 765.15
  Q 801.37 739.04 825.71 725.48
  Q 833.84 720.95 845.93 717.26
  Q 855.99 714.20 865.53 713.59
  Q 892.83 711.83 916.00 723.58
  Q 924.11 727.69 932.88 734.99
  Q 940.49 741.33 946.46 749.32
  C 960.50 768.13 967.79 791.75 965.56 815.23
  Q 963.09 841.22 947.25 862.75
  Q 939.30 873.55 929.66 881.30
  C 928.96 881.86 928.22 882.05 927.50 882.52
  Q 927.39 882.59 927.43 882.71
  Z
  M 901.40 849.76
  Q 907.62 845.12 914.86 835.15
  Q 919.72 828.45 922.36 818.26
  Q 924.60 809.60 923.26 800.15
  Q 921.50 787.71 914.44 777.82
  Q 903.44 762.38 885.56 757.70
  Q 874.48 754.80 864.38 756.70
  Q 859.68 757.59 859.30 757.65
  Q 856.92 758.04 854.34 759.07
  Q 842.38 763.83 833.66 773.17
  Q 826.03 781.34 822.92 791.02
  Q 818.20 805.71 822.15 820.40
  C 827.40 839.91 842.07 853.66 862.09 857.99
  Q 875.07 860.79 887.95 856.72
  Q 889.10 856.35 896.49 853.24
  Q 896.95 853.05 897.27 852.67
  Q 897.49 852.40 897.78 852.20
  C 898.64 851.57 899.46 852.03 900.07 850.74
  A 1.30 0.99 -2.4 0 1 900.78 850.15
  Q 900.98 850.08 901.40 849.76
  Z"
/>
<path fill="#489c48" d="
  M 722.05 760.24
  A 0.66 0.65 86.5 0 0 721.40 759.66
  L 587.57 759.10
  Q 587.08 759.10 586.68 758.81
  Q 583.67 756.61 583.65 753.09
  Q 583.58 744.96 583.65 724.25
  Q 583.67 719.82 586.73 717.40
  Q 588.34 716.13 591.56 716.09
  Q 611.15 715.85 635.03 716.15
  Q 648.90 716.32 655.03 716.27
  Q 676.55 716.07 723.63 716.19
  Q 749.75 716.26 757.75 716.17
  C 761.78 716.13 764.08 720.49 764.08 724.02
  Q 764.17 772.55 764.14 887.49
  C 764.14 892.35 764.50 893.83 761.13 896.88
  Q 758.85 898.94 757.32 898.97
  Q 754.62 899.02 729.16 899.21
  Q 726.25 899.23 724.70 897.99
  Q 723.38 896.93 722.69 895.32
  Q 722.21 894.18 722.20 892.11
  Q 721.98 793.35 722.18 769.81
  C 722.20 767.29 722.41 763.31 722.05 760.24
  Z"
/>
<path fill="#489c48" d="
  M 1083.95 806.84
  A 0.18 0.17 -71.2 0 0 1084.23 806.70
  Q 1083.74 759.53 1083.83 725.71
  Q 1083.85 720.55 1084.82 719.09
  Q 1086.85 716.02 1091.74 715.99
  Q 1112.78 715.89 1118.81 715.94
  Q 1122.70 715.97 1124.39 717.24
  Q 1126.65 718.93 1126.64 723.25
  Q 1126.57 810.50 1126.55 897.96
  A 0.65 0.64 73.6 0 1 1126.26 898.50
  Q 1122.47 900.95 1119.27 898.09
  Q 1101.76 882.38 1084.07 866.62
  Q 1073.42 857.14 1069.74 853.75
  Q 1048.09 833.79 1021.06 809.88
  A 0.38 0.38 0.0 0 0 1020.43 810.17
  Q 1020.49 839.69 1020.42 892.73
  Q 1020.42 894.46 1019.69 895.60
  C 1018.55 897.37 1017.11 899.15 1014.75 899.13
  Q 992.01 898.93 986.38 899.07
  Q 982.58 899.17 981.06 897.82
  Q 978.37 895.43 978.27 892.31
  Q 977.87 880.50 978.07 867.74
  Q 978.30 852.79 978.32 847.75
  Q 978.49 796.51 978.36 748.77
  Q 978.30 725.12 978.35 720.67
  Q 978.37 718.66 978.91 717.70
  C 979.85 716.04 981.92 715.50 983.51 716.66
  Q 984.00 717.02 984.93 717.83
  Q 1003.35 734.04 1055.24 780.76
  Q 1063.91 788.58 1079.26 802.86
  Q 1081.54 804.98 1083.95 806.84
  Z"
/>
<path fill="#489c48" d="
  M 396.73 806.54
  A 0.15 0.15 0.0 0 0 396.98 806.42
  Q 397.07 750.57 397.16 721.88
  Q 397.16 721.19 397.81 720.26
  Q 397.91 720.12 398.77 718.82
  Q 400.38 716.39 404.28 716.33
  Q 426.45 716.00 432.23 716.39
  Q 439.24 716.86 439.25 724.51
  Q 439.35 829.24 439.04 895.83
  Q 439.03 898.79 435.79 899.53
  Q 434.19 899.90 433.29 899.13
  Q 423.53 890.80 419.04 886.79
  Q 382.75 854.39 332.54 809.52
  Q 331.69 808.76 331.98 809.86
  C 332.15 810.51 332.48 811.50 332.48 812.21
  Q 332.55 830.03 332.44 892.09
  Q 332.43 894.94 331.31 896.05
  Q 329.82 897.52 328.31 898.49
  Q 327.20 899.20 324.71 899.18
  Q 321.16 899.16 299.34 899.12
  Q 294.94 899.12 292.99 897.74
  Q 289.80 895.49 289.81 890.75
  Q 290.00 833.60 289.80 756.50
  Q 289.73 731.86 289.80 722.58
  Q 289.81 720.18 290.67 719.17
  Q 292.00 717.60 293.21 716.56
  Q 293.61 716.21 294.14 716.27
  Q 295.57 716.44 296.74 717.53
  Q 306.71 726.79 322.40 740.69
  Q 323.40 741.57 330.98 748.46
  Q 337.79 754.65 339.89 756.16
  C 341.98 757.66 343.54 759.92 345.93 761.92
  Q 352.28 767.25 357.77 772.13
  Q 376.27 788.57 396.73 806.54
  Z"
/>
<path fill="#489c48" d="
  M 473.25 835.15
  Q 489.51 800.54 505.92 765.99
  Q 509.55 758.33 514.74 748.05
  Q 521.28 735.07 528.00 719.75
  C 528.63 718.31 529.72 717.52 531.35 717.35
  Q 535.90 716.88 537.87 721.92
  Q 542.15 732.90 552.22 754.12
  Q 561.35 773.35 571.29 795.05
  Q 574.83 802.77 579.66 812.92
  Q 597.66 850.82 615.83 890.83
  Q 617.15 893.73 616.59 895.65
  Q 615.65 898.84 611.71 899.20
  Q 606.99 899.62 578.53 899.15
  Q 574.86 899.09 572.56 897.49
  Q 571.67 896.87 570.18 893.66
  Q 553.79 858.25 533.03 814.91
  A 1.40 0.72 55.4 0 0 531.29 813.98
  Q 527.59 822.04 525.58 826.13
  Q 511.47 854.91 492.76 894.78
  Q 490.65 899.28 484.49 899.23
  Q 463.12 899.07 453.68 899.40
  C 450.47 899.51 448.68 898.44 446.65 896.17
  C 445.45 894.84 445.58 892.76 446.17 891.44
  C 448.01 887.36 452.02 880.06 454.46 874.05
  Q 455.40 871.73 456.41 869.95
  Q 457.70 867.68 458.50 865.94
  Q 462.80 856.59 465.79 850.49
  Q 472.25 837.28 473.25 835.15
  Z"
/>
<path fill="#fdfdfd" d="
  M 901.40 849.76
  Q 900.98 850.08 900.78 850.15
  A 1.30 0.99 -2.4 0 0 900.07 850.74
  C 899.46 852.03 898.64 851.57 897.78 852.20
  Q 897.49 852.40 897.27 852.67
  Q 896.95 853.05 896.49 853.24
  Q 889.10 856.35 887.95 856.72
  Q 875.07 860.79 862.09 857.99
  C 842.07 853.66 827.40 839.91 822.15 820.40
  Q 818.20 805.71 822.92 791.02
  Q 826.03 781.34 833.66 773.17
  Q 842.38 763.83 854.34 759.07
  Q 856.92 758.04 859.30 757.65
  Q 859.68 757.59 864.38 756.70
  Q 874.48 754.80 885.56 757.70
  Q 903.44 762.38 914.44 777.82
  Q 921.50 787.71 923.26 800.15
  Q 924.60 809.60 922.36 818.26
  Q 919.72 828.45 914.86 835.15
  Q 907.62 845.12 901.40 849.76
  Z"
/>
<path fill="#489c48" d="
  M 672.15 839.19
  Q 672.09 864.14 671.88 889.40
  Q 671.84 894.55 670.52 896.29
  Q 668.16 899.38 663.28 899.36
  Q 660.94 899.35 637.34 899.41
  Q 634.08 899.42 632.97 898.48
  Q 631.66 897.37 630.65 896.01
  Q 630.18 895.37 630.14 892.88
  Q 630.11 890.68 630.22 839.10
  Q 630.33 787.52 630.37 785.32
  Q 630.42 782.83 630.90 782.19
  Q 631.91 780.83 633.23 779.73
  Q 634.34 778.79 637.60 778.82
  Q 661.20 778.98 663.54 778.98
  Q 668.42 778.98 670.77 782.08
  Q 672.08 783.83 672.10 788.98
  Q 672.20 814.24 672.15 839.19
  Z"
/>
</svg>
