<?xml version="1.0" encoding="UTF-8" standalone="no"?>
<!DOCTYPE svg PUBLIC "-//W3C//DTD SVG 1.1//EN" "http://www.w3.org/Graphics/SVG/1.1/DTD/svg11.dtd">
<svg xmlns="http://www.w3.org/2000/svg" version="1.1" viewBox="0.00 0.00 652.00 308.00">
<g stroke-width="2.00" fill="none" stroke-linecap="butt">
<path stroke="#92aa95" vector-effect="non-scaling-stroke" d="
  M 138.74 44.04
  Q 135.15 49.81 134.13 52.41
  Q 129.62 63.81 126.41 70.66
  Q 121.85 80.39 114.40 89.69"
/>
<path stroke="#8da590" vector-effect="non-scaling-stroke" d="
  M 114.40 89.69
  Q 109.75 95.62 104.05 100.54
  Q 103.20 101.26 102.25 101.88"
/>
<path stroke="#a9c2a9" vector-effect="non-scaling-stroke" d="
  M 102.25 101.88
  Q 102.02 102.09 101.90 102.34"
/>
<path stroke="#8da590" vector-effect="non-scaling-stroke" d="
  M 101.90 102.34
  L 97.71 105.28"
/>
<path stroke="#92aa95" vector-effect="non-scaling-stroke" d="
  M 97.71 105.28
  Q 88.29 111.28 79.25 113.00
  Q 69.88 114.79 59.48 114.62
  Q 54.49 114.54 38.75 114.55
  Q 37.19 114.55 37.17 113.22"
/>
<path stroke="#a0baa1" vector-effect="non-scaling-stroke" d="
  M 37.17 113.22
  L 37.19 79.46"
/>
<path stroke="#a9c2a9" vector-effect="non-scaling-stroke" d="
  M 37.19 79.46
  L 37.41 38.49
  Q 37.42 38.14 37.77 38.15
  L 61.73 38.36"
/>
<path stroke="#97b19a" vector-effect="non-scaling-stroke" d="
  M 61.73 38.36
  C 73.72 39.03 86.09 44.44 92.64 54.70
  Q 95.85 59.74 97.31 64.66
  Q 98.69 69.30 98.72 77.34
  Q 98.73 81.84 97.50 86.06
  Q 95.64 92.42 94.29 94.34
  Q 92.96 96.24 91.22 97.76
  Q 89.59 99.19 91.51 98.18
  Q 96.06 95.79 100.56 92.53
  Q 103.76 90.21 105.86 87.84
  Q 108.78 84.53 110.27 82.29
  Q 117.91 70.86 122.92 57.24
  Q 123.31 56.18 123.21 55.17
  Q 123.12 54.17 122.82 53.06
  Q 119.86 41.81 112.71 32.45"
/>
<path stroke="#a9c2a9" vector-effect="non-scaling-stroke" d="
  M 112.71 32.45
  C 100.38 16.39 80.43 9.01 60.24 8.54
  Q 34.45 7.94 8.48 8.54
  Q 7.98 8.56 7.98 9.06
  L 8.15 80.29"
/>
<path stroke="#a0baa1" vector-effect="non-scaling-stroke" d="
  M 8.15 80.29
  L 8.28 115.30"
/>
<path stroke="#92aa95" vector-effect="non-scaling-stroke" d="
  M 8.28 115.30
  L 8.31 142.99"
/>
<path stroke="#8da590" vector-effect="non-scaling-stroke" d="
  M 8.31 142.99
  Q 8.07 144.47 9.00 144.48
  C 27.42 144.64 45.84 144.37 64.26 144.49
  Q 96.78 144.71 121.77 125.39
  Q 128.51 120.19 133.94 113.82
  Q 139.38 107.43 143.98 100.24
  Q 150.09 90.68 156.50 78.98
  Q 158.14 75.98 163.60 63.83"
/>
<path stroke="#92aa95" vector-effect="non-scaling-stroke" d="
  M 163.60 63.83
  Q 170.86 50.95 180.65 44.41
  Q 190.38 37.91 201.74 37.44
  Q 219.79 36.70 232.88 49.27
  Q 237.81 54.00 242.42 62.00
  C 242.98 62.97 243.16 64.43 243.58 65.41
  Q 244.76 68.14 245.34 65.22
  C 245.91 62.40 246.91 57.93 248.72 54.17
  Q 249.71 52.11 251.96 45.82
  Q 254.36 39.10 257.07 32.45"
/>
<path stroke="#a9c2a9" vector-effect="non-scaling-stroke" d="
  M 257.07 32.45
  L 258.39 29.92
  Q 258.69 29.34 258.17 29.21
  L 256.69 28.83
  A 1.07 0.80 67.2 0 1 256.28 28.59
  Q 248.41 20.90 241.24 16.31
  Q 225.61 6.30 204.61 5.64
  Q 195.91 5.36 188.26 6.97
  Q 166.20 11.60 150.48 28.23
  Q 143.71 35.39 138.74 44.04"
/>
<path stroke="#3f7041" vector-effect="non-scaling-stroke" d="
  M 257.07 32.45
  Q 257.05 31.31 256.26 32.94
  Q 255.20 35.15 254.06 37.32"
/>
<path stroke="#4d804e" vector-effect="non-scaling-stroke" d="
  M 254.06 37.32
  L 218.14 38.81"
/>
<path stroke="#3f7041" vector-effect="non-scaling-stroke" d="
  M 218.14 38.81
  Q 206.12 35.13 194.70 37.43
  Q 185.45 39.28 178.31 45.19"
/>
<path stroke="#528453" vector-effect="non-scaling-stroke" d="
  M 178.31 45.19
  Q 168.18 43.71 158.24 47.54
  Q 148.79 51.18 139.44 55.05
  Q 137.37 55.91 133.85 55.95"
/>
<path stroke="#3f7041" vector-effect="non-scaling-stroke" d="
  M 133.85 55.95
  Q 135.88 49.85 139.64 44.69
  Q 140.04 44.14 139.37 44.09
  L 138.74 44.04"
/>
<path stroke="#225329" vector-effect="non-scaling-stroke" d="
  M 163.60 63.83
  Q 156.74 74.26 151.15 85.93
  Q 150.63 87.01 148.38 89.47
  Q 148.04 89.84 147.54 89.92
  Q 137.79 91.48 127.63 92.91
  C 122.59 93.62 118.02 93.56 114.40 89.69"
/>
<path stroke="#3a6c3f" vector-effect="non-scaling-stroke" d="
  M 133.85 55.95
  Q 132.60 58.16 131.67 60.57
  Q 129.88 65.20 129.86 65.22
  Q 124.96 76.44 118.12 86.52
  Q 116.58 88.79 118.91 87.34
  Q 133.06 78.57 158.52 63.27
  Q 165.57 59.03 171.05 52.08
  Q 172.54 50.19 174.53 48.51
  Q 176.32 47.00 178.31 45.19"
/>
<path stroke="#36683a" vector-effect="non-scaling-stroke" d="
  M 218.14 38.81
  Q 224.18 41.21 227.85 43.66
  Q 234.52 48.13 240.65 56.56
  Q 240.81 56.77 242.31 59.37
  Q 243.20 60.92 244.26 62.03
  Q 244.62 62.41 244.74 61.90
  Q 245.77 57.30 249.05 50.15
  C 251.05 45.79 252.46 41.63 254.06 37.32"
/>
<path stroke="#225329" vector-effect="non-scaling-stroke" d="
  M 8.31 142.99
  Q 21.54 141.89 32.00 138.58
  Q 40.26 135.96 69.93 125.27
  Q 79.25 121.91 87.64 115.11
  Q 89.30 113.77 92.26 110.11
  Q 93.26 108.87 94.92 107.65
  Q 96.39 106.57 97.71 105.28"
/>
<path stroke="#3a6b3d" vector-effect="non-scaling-stroke" d="
  M 101.90 102.34
  Q 102.02 102.69 102.35 102.35
  Q 102.73 101.98 102.25 101.88"
/>
<path stroke="#36683a" vector-effect="non-scaling-stroke" d="
  M 37.17 113.22
  L 37.02 97.93
  A 0.27 0.27 0.0 0 0 36.93 97.73
  L 36.43 97.26
  A 0.23 0.23 0.0 0 0 36.04 97.41
  L 35.16 113.82
  Q 35.13 114.32 34.63 114.38
  Q 32.12 114.68 25.79 116.25
  Q 21.58 117.29 16.48 117.80
  C 12.89 118.15 10.41 117.48 8.90 114.20
  Q 8.60 113.55 8.47 114.26
  L 8.28 115.30"
/>
<path stroke="#497b4b" vector-effect="non-scaling-stroke" d="
  M 9.28 74.00
  L 9.90 84.57
  Q 9.93 85.09 10.45 85.06
  Q 18.23 84.72 25.82 83.20
  C 32.84 81.80 34.67 77.03 35.36 70.45"
/>
<path stroke="#447746" vector-effect="non-scaling-stroke" d="
  M 112.71 32.45
  L 112.29 32.61
  A 0.46 0.45 -32.4 0 0 112.12 33.35
  Q 114.56 35.92 116.16 39.01
  Q 119.16 44.80 121.12 49.92
  Q 122.32 53.09 121.92 55.80
  Q 121.47 58.84 120.03 61.70"
/>
<path stroke="#4d804e" vector-effect="non-scaling-stroke" d="
  M 120.03 61.70
  Q 108.58 62.39 97.38 61.52"
/>
<path stroke="#447746" vector-effect="non-scaling-stroke" d="
  M 97.38 61.52
  Q 96.17 59.25 95.08 56.96
  Q 93.89 54.49 93.15 53.65
  Q 91.33 51.60 89.91 49.92
  Q 86.40 45.79 79.80 42.27
  Q 75.56 40.02 72.58 39.50
  C 69.66 38.99 65.52 36.99 61.86 37.86
  Q 61.73 37.89 61.83 37.98
  Q 61.96 38.09 62.07 38.12
  Q 62.28 38.19 62.07 38.27
  Q 61.92 38.33 61.73 38.36"
/>
<path stroke="#4d804e" vector-effect="non-scaling-stroke" d="
  M 37.19 79.46
  L 36.90 59.73
  Q 36.89 59.21 36.53 59.59
  L 35.93 60.22
  A 0.39 0.36 -25.7 0 0 35.83 60.47
  L 35.36 70.45"
/>
<path stroke="#528453" vector-effect="non-scaling-stroke" d="
  M 35.36 70.45
  Q 22.39 72.93 9.28 74.00"
/>
<path stroke="#4d804e" vector-effect="non-scaling-stroke" d="
  M 9.28 74.00
  L 8.87 63.57
  Q 8.86 63.32 8.63 63.39
  L 8.35 63.46
  Q 8.33 63.46 8.33 63.48
  L 8.15 80.29"
/>
<path stroke="#3b6f3f" vector-effect="non-scaling-stroke" d="
  M 97.38 61.52
  Q 99.09 66.89 99.81 71.60
  Q 100.53 76.30 99.34 81.21
  Q 99.01 82.57 99.00 84.22
  C 98.97 87.33 97.45 90.22 96.44 92.78
  Q 95.76 94.51 97.32 93.49
  Q 103.94 89.16 108.59 82.86
  Q 114.36 75.02 120.03 61.70"
/>
<path stroke="#8da590" vector-effect="non-scaling-stroke" d="
  M 262.15 39.45
  Q 260.62 43.77 254.58 57.10
  Q 253.14 60.29 250.03 70.28
  Q 248.91 73.88 243.63 85.79
  Q 242.35 88.68 241.45 91.18
  Q 239.85 95.63 239.34 96.59
  Q 234.51 105.53 225.70 110.42
  Q 218.29 114.54 212.29 115.95
  Q 205.97 117.44 197.98 116.17
  Q 179.73 113.28 169.07 97.94
  Q 164.31 91.09 163.54 83.20
  Q 163.23 79.95 162.17 83.04
  C 160.97 86.54 159.02 89.56 157.16 92.70
  Q 150.69 103.58 143.59 112.39
  Q 142.98 113.14 143.54 113.93
  C 156.33 132.07 175.86 144.52 198.00 146.43
  Q 229.55 149.15 253.25 128.18
  Q 269.74 113.59 274.18 89.92
  Q 274.96 85.77 275.11 79.47
  Q 275.28 72.40 275.06 69.00
  Q 274.59 61.77 271.47 52.88"
/>
<path stroke="#a0baa1" vector-effect="non-scaling-stroke" d="
  M 271.47 52.88
  Q 268.47 44.38 263.89 36.44
  A 0.45 0.45 0.0 0 0 263.08 36.53
  L 262.15 39.45"
/>
<path stroke="#316235" vector-effect="non-scaling-stroke" d="
  M 271.47 52.88
  Q 271.80 57.73 272.65 62.47
  Q 273.70 68.32 273.79 72.02
  Q 273.90 77.00 273.85 81.77
  Q 273.85 82.39 273.23 82.46
  L 246.51 85.21
  A 0.57 0.57 0.0 0 1 245.90 84.50
  Q 247.02 80.12 249.52 74.11
  Q 250.78 71.09 252.22 66.46
  Q 254.34 59.63 254.75 58.76
  Q 259.38 49.06 262.50 40.49
  Q 263.00 39.11 262.15 39.45"
/>
<path stroke="#92aa95" vector-effect="non-scaling-stroke" d="
  M 288.59 81.07
  L 288.36 94.29
  A 0.47 0.46 -90.0 0 0 288.82 94.76
  L 333.61 94.76
  A 0.33 0.32 90.0 0 0 333.93 94.43
  L 333.93 67.92
  A 0.94 0.93 90.0 0 0 333.00 66.98
  L 322.96 66.95"
/>
<path stroke="#a0baa1" vector-effect="non-scaling-stroke" d="
  M 322.96 66.95
  L 290.51 67.00"
/>
<path stroke="#a9c2a9" vector-effect="non-scaling-stroke" d="
  M 290.51 67.00
  L 289.48 67.20
  A 1.04 1.04 0.0 0 0 288.63 68.22
  L 288.59 81.07"
/>
<path stroke="#4d804e" vector-effect="non-scaling-stroke" d="
  M 290.51 67.00
  L 291.10 80.63"
/>
<path stroke="#3f7041" vector-effect="non-scaling-stroke" d="
  M 291.10 80.63
  L 288.59 81.07"
/>
<path stroke="#36683a" vector-effect="non-scaling-stroke" d="
  M 322.96 66.95
  L 319.15 67.30
  Q 318.95 67.32 318.96 67.51
  L 318.96 67.52
  Q 318.96 67.73 319.18 67.72
  Q 325.79 67.28 332.01 69.42
  Q 332.50 69.58 332.00 69.72
  L 291.10 80.63"
/>
<path stroke="#a0baa1" vector-effect="non-scaling-stroke" d="
  M 534.45 190.61
  L 534.57 200.62"
/>
<path stroke="#8da590" vector-effect="non-scaling-stroke" d="
  M 534.57 200.62
  L 534.57 262.26"
/>
<path stroke="#92aa95" vector-effect="non-scaling-stroke" d="
  M 534.57 262.26
  L 534.74 301.02
  Q 534.74 301.53 535.24 301.53
  L 547.82 301.55"
/>
<path stroke="#8da590" vector-effect="non-scaling-stroke" d="
  M 547.82 301.55
  L 562.74 301.58
  A 0.34 0.34 0.0 0 0 563.08 301.24
  L 563.14 226.46"
/>
<path stroke="#92aa95" vector-effect="non-scaling-stroke" d="
  M 563.14 226.46
  L 610.51 271.82"
/>
<path stroke="#97b19a" vector-effect="non-scaling-stroke" d="
  M 610.51 271.82
  L 618.72 279.57"
/>
<path stroke="#92aa95" vector-effect="non-scaling-stroke" d="
  M 618.72 279.57
  L 643.09 302.31
  A 0.64 0.64 0.0 0 0 644.17 301.84
  L 644.17 165.29
  Q 644.17 164.85 643.73 164.85
  L 616.11 165.34"
/>
<path stroke="#a5bea6" vector-effect="non-scaling-stroke" d="
  M 616.11 165.34
  L 616.06 196.53"
/>
<path stroke="#a0baa1" vector-effect="non-scaling-stroke" d="
  M 616.06 196.53
  L 616.06 208.55"
/>
<path stroke="#97b19a" vector-effect="non-scaling-stroke" d="
  M 616.06 208.55
  L 616.23 238.04"
/>
<path stroke="#a9c2a9" vector-effect="non-scaling-stroke" d="
  M 616.23 238.04
  Q 616.16 238.19 616.04 238.24"
/>
<path stroke="#97b19a" vector-effect="non-scaling-stroke" d="
  M 616.04 238.24
  L 572.03 196.57"
/>
<path stroke="#a5bea6" vector-effect="non-scaling-stroke" d="
  M 572.03 196.57
  L 534.91 161.15
  A 0.25 0.25 0.0 0 0 534.48 161.33
  L 534.45 190.61"
/>
<path stroke="#407344" vector-effect="non-scaling-stroke" d="
  M 572.03 196.57
  Q 574.22 200.61 578.24 203.64"
/>
<path stroke="#497b4b" vector-effect="non-scaling-stroke" d="
  M 578.24 203.64
  Q 566.17 203.39 554.34 201.68
  Q 542.37 199.95 534.45 190.61"
/>
<path stroke="#447746" vector-effect="non-scaling-stroke" d="
  M 616.04 238.24
  Q 616.04 238.46 616.13 238.51
  Q 616.32 238.62 616.41 238.42
  Q 616.63 237.88 616.23 238.04"
/>
<path stroke="#285a2e" vector-effect="non-scaling-stroke" d="
  M 562.29 226.19
  L 561.66 230.96
  Q 561.60 231.44 561.16 231.24
  Q 557.99 229.83 555.77 229.31
  Q 548.41 227.59 536.65 225.31
  Q 536.13 225.21 536.12 224.69
  L 535.87 206.51"
/>
<path stroke="#3b6f3f" vector-effect="non-scaling-stroke" d="
  M 578.24 203.64
  L 585.63 210.90
  Q 585.98 211.24 585.50 211.30
  C 569.29 213.48 553.27 212.25 536.59 210.24
  Q 536.10 210.18 536.07 209.69
  L 535.87 206.51"
/>
<path stroke="#316235" vector-effect="non-scaling-stroke" d="
  M 535.87 206.51
  Q 535.99 202.43 534.57 200.62"
/>
<path stroke="#2d5f32" vector-effect="non-scaling-stroke" d="
  M 618.72 279.57
  Q 619.46 279.35 620.27 279.72"
/>
<path stroke="#36683a" vector-effect="non-scaling-stroke" d="
  M 620.27 279.72
  L 642.75 300.55
  A 0.22 0.22 0.0 0 0 643.12 300.38
  L 643.12 277.06"
/>
<path stroke="#2d5f32" vector-effect="non-scaling-stroke" d="
  M 643.12 277.06
  L 642.93 269.24
  Q 642.91 268.77 642.45 268.72
  L 604.85 264.62
  Q 604.21 264.55 604.66 265.00
  Q 607.42 267.78 610.36 270.25
  Q 610.73 270.57 610.84 270.93
  Q 611.04 271.64 610.51 271.82"
/>
<path stroke="#225329" vector-effect="non-scaling-stroke" d="
  M 563.14 226.46
  Q 563.09 227.03 562.99 226.37
  Q 562.96 226.23 562.84 226.17
  Q 562.58 226.04 562.29 226.19"
/>
<path stroke="#2d5f32" vector-effect="non-scaling-stroke" d="
  M 562.29 226.19
  Q 562.67 225.64 563.57 225.86
  Q 564.05 225.98 565.02 226.90
  Q 569.27 230.96 573.73 235.00
  Q 575.21 236.34 577.55 237.00
  Q 589.70 240.47 600.71 241.04
  Q 620.05 242.05 634.38 244.87
  C 636.87 245.36 640.35 245.57 642.16 245.71
  Q 642.67 245.75 642.67 245.25
  L 642.87 215.35"
/>
<path stroke="#36683a" vector-effect="non-scaling-stroke" d="
  M 642.87 215.35
  L 643.10 201.48"
/>
<path stroke="#3a6c3f" vector-effect="non-scaling-stroke" d="
  M 643.10 201.48
  L 643.27 166.70"
/>
<path stroke="#3f7041" vector-effect="non-scaling-stroke" d="
  M 643.27 166.70
  Q 641.87 165.94 640.30 165.68"
/>
<path stroke="#3a6c3f" vector-effect="non-scaling-stroke" d="
  M 640.30 165.68
  L 616.11 165.34"
/>
<path stroke="#3b6f3f" vector-effect="non-scaling-stroke" d="
  M 642.87 215.35
  Q 628.84 214.26 616.06 208.55"
/>
<path stroke="#225329" vector-effect="non-scaling-stroke" d="
  M 547.82 301.55
  Q 548.12 300.25 552.01 300.63"
/>
<path stroke="#316235" vector-effect="non-scaling-stroke" d="
  M 552.01 300.63
  L 561.15 300.68
  A 1.08 1.08 0.0 0 0 562.24 299.55
  L 561.95 292.98"
/>
<path stroke="#285a2e" vector-effect="non-scaling-stroke" d="
  M 561.95 292.98
  L 561.86 279.76"
/>
<path stroke="#225329" vector-effect="non-scaling-stroke" d="
  M 561.86 279.76
  Q 561.89 270.67 561.93 261.49
  Q 561.94 259.51 561.45 255.60
  Q 561.39 255.10 560.91 254.98
  Q 545.72 251.17 534.57 262.26"
/>
<path stroke="#3b6f3f" vector-effect="non-scaling-stroke" d="
  M 643.12 277.06
  L 620.27 279.72"
/>
<path stroke="#528453" vector-effect="non-scaling-stroke" d="
  M 640.30 165.68
  L 617.98 165.91
  Q 617.40 165.91 617.40 166.49
  L 617.40 173.34
  Q 617.40 173.84 617.87 174.01
  L 642.47 182.65
  Q 643.01 182.83 643.02 182.27
  L 643.27 166.70"
/>
<path stroke="#497b4b" vector-effect="non-scaling-stroke" d="
  M 643.10 201.48
  L 616.06 196.53"
/>
<path stroke="#2d5f32" vector-effect="non-scaling-stroke" d="
  M 561.86 279.76
  Q 559.95 272.13 551.86 274.35
  Q 544.46 276.39 536.68 277.03
  Q 536.17 277.08 536.16 277.58
  L 535.73 293.06"
/>
<path stroke="#36683a" vector-effect="non-scaling-stroke" d="
  M 535.73 293.06
  L 535.34 299.82
  Q 535.29 300.60 536.07 300.60
  L 552.01 300.63"
/>
<path stroke="#3b6f3f" vector-effect="non-scaling-stroke" d="
  M 561.95 292.98
  Q 548.82 292.08 535.73 293.06"
/>
<path stroke="#97b19a" vector-effect="non-scaling-stroke" d="
  M 8.61 185.52
  L 8.48 211.69"
/>
<path stroke="#92aa95" vector-effect="non-scaling-stroke" d="
  M 8.48 211.69
  L 8.52 264.23"
/>
<path stroke="#97b19a" vector-effect="non-scaling-stroke" d="
  M 8.52 264.23
  L 8.59 301.00
  A 0.38 0.37 0.8 0 0 8.96 301.37
  L 31.29 301.42"
/>
<path stroke="#a5bea6" vector-effect="non-scaling-stroke" d="
  M 31.29 301.42
  L 36.64 301.46
  A 0.43 0.43 0.0 0 0 37.07 301.03
  L 37.09 283.99"
/>
<path stroke="#a0baa1" vector-effect="non-scaling-stroke" d="
  M 37.09 283.99
  L 37.16 235.21"
/>
<path stroke="#97b19a" vector-effect="non-scaling-stroke" d="
  M 37.16 235.21
  L 37.34 226.13"
/>
<path stroke="#92aa95" vector-effect="non-scaling-stroke" d="
  M 37.34 226.13
  L 72.50 260.08"
/>
<path stroke="#97b19a" vector-effect="non-scaling-stroke" d="
  M 72.50 260.08
  L 94.85 280.70"
/>
<path stroke="#8da590" vector-effect="non-scaling-stroke" d="
  M 94.85 280.70
  L 116.98 300.88
  A 1.58 1.57 -78.6 0 1 117.39 301.50
  Q 117.73 302.46 118.67 302.36
  A 0.60 0.59 -3.3 0 0 119.20 301.77
  L 119.20 165.26
  Q 119.20 164.83 118.76 164.83
  L 91.32 164.83
  Q 90.83 164.83 90.64 165.27
  Q 90.51 165.58 90.49 165.96"
/>
<path stroke="#a0baa1" vector-effect="non-scaling-stroke" d="
  M 90.49 165.96
  L 90.67 198.45"
/>
<path stroke="#97b19a" vector-effect="non-scaling-stroke" d="
  M 90.67 198.45
  L 90.45 211.54"
/>
<path stroke="#92aa95" vector-effect="non-scaling-stroke" d="
  M 90.45 211.54
  L 90.58 238.60
  Q 90.58 239.08 90.23 238.75
  L 66.31 215.95"
/>
<path stroke="#97b19a" vector-effect="non-scaling-stroke" d="
  M 66.31 215.95
  L 45.44 195.98"
/>
<path stroke="#a5bea6" vector-effect="non-scaling-stroke" d="
  M 45.44 195.98
  L 9.14 161.43
  A 0.32 0.31 -68.4 0 0 8.61 161.66
  L 8.61 185.52"
/>
<path stroke="#407344" vector-effect="non-scaling-stroke" d="
  M 45.44 195.98
  Q 45.74 197.92 48.85 200.22"
/>
<path stroke="#497b4b" vector-effect="non-scaling-stroke" d="
  M 48.85 200.22
  Q 29.00 200.90 9.74 197.22"
/>
<path stroke="#407344" vector-effect="non-scaling-stroke" d="
  M 9.74 197.22
  L 9.46 188.92"
/>
<path stroke="#528453" vector-effect="non-scaling-stroke" d="
  M 9.46 188.92
  Q 23.43 190.45 37.48 189.99
  Q 37.96 189.98 37.61 189.64
  L 10.38 163.91
  A 0.34 0.34 0.0 0 0 9.80 164.15
  L 9.45 183.03"
/>
<path stroke="#407344" vector-effect="non-scaling-stroke" d="
  M 9.45 183.03
  L 9.25 189.04
  Q 9.24 189.33 9.02 189.28
  L 9.01 189.28
  A 0.26 0.22 9.5 0 1 8.80 189.03
  Q 8.99 187.26 8.61 185.52"
/>
<path stroke="#447746" vector-effect="non-scaling-stroke" d="
  M 9.46 188.92
  L 9.45 183.03"
/>
<path stroke="#3b6f3f" vector-effect="non-scaling-stroke" d="
  M 9.74 197.22
  L 10.08 207.35
  Q 10.10 207.84 10.59 207.92
  Q 32.08 211.09 52.89 205.04
  Q 53.36 204.90 53.02 204.54
  L 48.85 200.22"
/>
<path stroke="#2d5f32" vector-effect="non-scaling-stroke" d="
  M 66.31 215.95
  Q 70.70 222.05 76.48 227.15
  Q 76.82 227.45 76.38 227.59
  Q 63.97 231.43 59.42 231.95
  Q 53.88 232.58 49.42 231.04
  Q 45.06 229.54 37.34 226.13"
/>
<path stroke="#3b6f3f" vector-effect="non-scaling-stroke" d="
  M 37.16 235.21
  L 36.78 238.99"
/>
<path stroke="#2d5f32" vector-effect="non-scaling-stroke" d="
  M 36.78 238.99
  L 36.67 234.46
  Q 36.65 233.58 36.35 234.41
  C 35.04 238.01 33.45 240.66 30.64 241.93
  Q 22.03 245.81 11.04 250.60
  A 0.74 0.74 0.0 0 1 10.00 249.91
  Q 10.14 233.01 9.81 218.25
  Q 9.74 215.40 8.48 211.69"
/>
<path stroke="#2d5f32" vector-effect="non-scaling-stroke" d="
  M 117.82 262.31
  Q 111.52 260.29 107.38 259.61
  Q 98.62 258.18 86.53 257.38
  Q 81.32 257.03 77.25 257.86
  Q 75.02 258.32 72.50 260.08"
/>
<path stroke="#36683a" vector-effect="non-scaling-stroke" d="
  M 36.78 238.99
  L 36.58 241.79"
/>
<path stroke="#2d5f32" vector-effect="non-scaling-stroke" d="
  M 36.58 241.79
  L 36.40 252.86
  Q 36.39 253.36 35.93 253.54
  L 8.52 264.23"
/>
<path stroke="#497b4b" vector-effect="non-scaling-stroke" d="
  M 37.09 283.99
  Q 33.71 289.44 27.57 289.75
  Q 17.07 290.29 10.50 290.93
  Q 10.00 290.97 9.99 291.48
  L 9.78 299.71"
/>
<path stroke="#3b6f3f" vector-effect="non-scaling-stroke" d="
  M 9.78 299.71
  L 9.86 278.28
  Q 9.86 277.77 10.34 277.59
  Q 22.87 272.97 36.07 270.11
  Q 36.56 270.01 36.56 269.50
  L 36.58 241.79"
/>
<path stroke="#285a2e" vector-effect="non-scaling-stroke" d="
  M 94.85 280.70
  Q 95.79 280.16 98.14 282.80"
/>
<path stroke="#316235" vector-effect="non-scaling-stroke" d="
  M 98.14 282.80
  L 117.43 300.50
  A 0.59 0.59 0.0 0 0 118.42 300.06
  L 118.41 284.48"
/>
<path stroke="#285a2e" vector-effect="non-scaling-stroke" d="
  M 118.41 284.48
  L 117.82 262.31"
/>
<path stroke="#225329" vector-effect="non-scaling-stroke" d="
  M 117.82 262.31
  L 117.86 231.77"
/>
<path stroke="#285a2e" vector-effect="non-scaling-stroke" d="
  M 117.86 231.77
  L 118.12 210.71"
/>
<path stroke="#316235" vector-effect="non-scaling-stroke" d="
  M 118.12 210.71
  L 118.10 190.45"
/>
<path stroke="#3a6b3d" vector-effect="non-scaling-stroke" d="
  M 118.10 190.45
  L 118.15 166.43
  Q 118.15 165.90 117.62 165.90
  L 91.67 166.26"
/>
<path stroke="#316235" vector-effect="non-scaling-stroke" d="
  M 91.67 166.26
  Q 91.13 165.87 90.49 165.96"
/>
<path stroke="#2d5f32" vector-effect="non-scaling-stroke" d="
  M 117.86 231.77
  L 92.36 226.48
  Q 91.87 226.38 91.85 225.88
  Q 91.70 222.08 91.03 218.14
  Q 90.66 215.98 90.71 218.17
  Q 90.83 223.34 90.58 227.02
  Q 90.53 227.78 90.52 227.02
  L 90.45 211.54"
/>
<path stroke="#3b6f3f" vector-effect="non-scaling-stroke" d="
  M 118.41 284.48
  L 98.14 282.80"
/>
<path stroke="#407344" vector-effect="non-scaling-stroke" d="
  M 9.78 299.71
  Q 17.92 300.17 26.08 300.49
  Q 28.75 300.59 31.29 301.42"
/>
<path stroke="#4d804e" vector-effect="non-scaling-stroke" d="
  M 91.67 166.26
  L 91.99 189.65
  Q 92.00 190.16 92.51 190.17
  L 118.10 190.45"
/>
<path stroke="#3b6f3f" vector-effect="non-scaling-stroke" d="
  M 118.12 210.71
  L 92.39 209.41
  Q 91.91 209.39 91.89 208.90
  L 91.46 193.25
  Q 91.45 192.83 91.20 192.94
  L 91.19 192.95
  A 0.33 0.29 81.2 0 0 91.00 193.25
  L 90.92 199.25
  Q 90.91 200.55 90.62 199.30
  Q 90.54 198.96 90.67 198.45"
/>
<path stroke="#a0baa1" vector-effect="non-scaling-stroke" d="
  M 428.80 165.88
  Q 405.22 174.83 391.19 195.67
  Q 387.18 201.62 384.80 207.85"
/>
<path stroke="#8da590" vector-effect="non-scaling-stroke" d="
  M 384.80 207.85
  Q 381.06 217.50 380.34 224.61
  Q 379.34 234.49 380.04 249.75
  Q 380.32 255.90 380.68 286.58
  Q 380.68 287.10 380.48 287.65
  Q 380.20 288.41 380.21 288.73
  Q 380.28 290.64 381.31 289.03
  Q 382.28 287.52 382.36 285.92"
/>
<path stroke="#a0baa1" vector-effect="non-scaling-stroke" d="
  M 382.36 285.92
  Q 383.51 284.64 383.57 283.65"
/>
<path stroke="#8da590" vector-effect="non-scaling-stroke" d="
  M 383.57 283.65
  Q 397.83 253.77 411.96 224.46
  Q 413.51 221.23 416.74 215.48
  Q 421.40 207.20 428.29 201.71"
/>
<path stroke="#97b19a" vector-effect="non-scaling-stroke" d="
  M 428.29 201.71
  Q 438.76 194.19 450.13 193.34
  Q 472.89 191.63 486.92 210.23
  Q 491.53 216.34 494.04 223.19
  Q 494.27 223.80 494.52 223.20
  Q 499.89 210.25 508.38 191.37
  C 508.81 190.42 509.42 189.83 510.02 189.06
  Q 510.37 188.61 510.00 188.17
  L 506.32 183.80"
/>
<path stroke="#a5bea6" vector-effect="non-scaling-stroke" d="
  M 506.32 183.80
  Q 492.16 169.42 472.77 164.42"
/>
<path stroke="#a9c2a9" vector-effect="non-scaling-stroke" d="
  M 472.77 164.42
  Q 450.38 159.05 428.80 165.88"
/>
<path stroke="#528453" vector-effect="non-scaling-stroke" d="
  M 472.77 164.42
  Q 472.69 164.79 472.82 165.18
  Q 472.99 165.69 473.50 165.82
  Q 482.59 168.18 491.03 173.07
  Q 496.30 176.12 499.98 179.60
  Q 500.37 179.98 499.83 180.04
  Q 486.65 181.64 482.85 181.67
  Q 459.89 181.85 436.94 182.08
  Q 424.34 182.21 406.17 180.69"
/>
<path stroke="#4d804e" vector-effect="non-scaling-stroke" d="
  M 406.17 180.69
  Q 410.58 176.41 415.63 173.63
  Q 420.73 170.82 428.78 167.02
  Q 429.16 166.84 429.31 166.59
  Q 429.65 166.01 428.80 165.88"
/>
<path stroke="#316235" vector-effect="non-scaling-stroke" d="
  M 423.94 203.31
  Q 416.78 204.48 409.83 205.65
  Q 402.04 206.96 397.73 208.25
  Q 391.86 210.01 385.88 211.96
  A 0.77 0.77 0.0 0 1 384.94 210.92
  Q 386.36 207.64 384.80 207.85"
/>
<path stroke="#407344" vector-effect="non-scaling-stroke" d="
  M 506.32 183.80
  C 506.33 185.79 507.92 186.84 508.87 188.34
  Q 509.14 188.76 508.84 189.15
  Q 507.60 190.79 506.75 192.75
  Q 504.31 198.39 502.11 202.77
  A 0.59 0.58 -68.5 0 1 501.43 203.07
  Q 491.82 200.37 481.21 201.43
  Q 480.73 201.48 480.32 201.22
  Q 475.20 197.83 467.86 194.61
  Q 462.68 192.34 457.84 192.21
  Q 451.92 192.05 446.09 192.76
  Q 442.59 193.19 437.77 195.46
  C 433.26 197.58 429.99 198.82 427.45 201.26"
/>
<path stroke="#35663a" vector-effect="non-scaling-stroke" d="
  M 427.45 201.26
  Q 425.66 202.72 423.94 203.31"
/>
<path stroke="#497b4b" vector-effect="non-scaling-stroke" d="
  M 423.94 203.31
  L 395.80 192.41
  Q 395.34 192.23 395.64 191.85
  Q 400.28 185.75 406.17 180.69"
/>
<path stroke="#316235" vector-effect="non-scaling-stroke" d="
  M 383.57 283.65
  Q 384.61 277.54 388.53 271.32"
/>
<path stroke="#225329" vector-effect="non-scaling-stroke" d="
  M 388.53 271.32
  L 395.57 254.05
  Q 395.79 253.49 395.20 253.57
  Q 388.45 254.48 382.56 257.68
  Q 382.12 257.92 382.12 258.41
  L 382.08 269.99"
/>
<path stroke="#316235" vector-effect="non-scaling-stroke" d="
  M 382.08 269.99
  Q 381.14 278.09 382.36 285.92"
/>
<path stroke="#285a2e" vector-effect="non-scaling-stroke" d="
  M 428.29 201.71
  Q 428.28 201.58 428.26 201.43
  A 0.30 0.28 0.1 0 0 427.99 201.17
  Q 427.77 201.15 427.45 201.26"
/>
<path stroke="#36683a" vector-effect="non-scaling-stroke" d="
  M 388.53 271.32
  Q 385.64 268.84 382.08 269.99"
/>
<path stroke="#a5bea6" vector-effect="non-scaling-stroke" d="
  M 187.56 172.09
  Q 185.71 174.37 184.65 177.69"
/>
<path stroke="#a0baa1" vector-effect="non-scaling-stroke" d="
  M 184.65 177.69
  L 175.43 195.68"
/>
<path stroke="#8da590" vector-effect="non-scaling-stroke" d="
  M 175.43 195.68
  L 122.88 300.79
  Q 122.64 301.28 123.19 301.28
  L 153.52 301.28
  A 0.62 0.61 -76.7 0 0 154.07 300.94
  L 163.93 280.80"
/>
<path stroke="#a0baa1" vector-effect="non-scaling-stroke" d="
  M 163.93 280.80
  Q 164.07 279.67 164.75 279.68
  Q 186.15 279.82 207.54 279.66"
/>
<path stroke="#97b19a" vector-effect="non-scaling-stroke" d="
  M 207.54 279.66
  L 217.38 279.83
  A 1.06 1.06 0.0 0 1 218.28 280.39
  L 221.73 286.94"
/>
<path stroke="#92aa95" vector-effect="non-scaling-stroke" d="
  M 221.73 286.94
  L 228.70 300.85
  Q 228.94 301.33 229.48 301.33
  L 259.99 301.33
  Q 260.92 301.33 260.51 300.50
  L 221.25 219.94"
/>
<path stroke="#97b19a" vector-effect="non-scaling-stroke" d="
  M 221.25 219.94
  L 207.80 192.38"
/>
<path stroke="#a0baa1" vector-effect="non-scaling-stroke" d="
  M 207.80 192.38
  L 193.12 162.80
  A 0.63 0.63 0.0 0 0 191.99 162.81
  L 187.56 172.09"
/>
<path stroke="#3b6f3f" vector-effect="non-scaling-stroke" d="
  M 207.80 192.38
  Q 208.13 195.69 209.17 197.65
  Q 212.10 203.20 214.18 208.53
  Q 214.36 209.00 213.86 209.03
  Q 203.63 209.47 199.13 209.22
  Q 186.35 208.49 173.33 202.59"
/>
<path stroke="#316235" vector-effect="non-scaling-stroke" d="
  M 173.33 202.59
  Q 174.91 199.43 175.43 195.68"
/>
<path stroke="#497b4b" vector-effect="non-scaling-stroke" d="
  M 184.65 177.69
  L 182.75 185.27
  Q 182.63 185.77 183.13 185.85
  L 203.97 189.20
  Q 204.78 189.33 204.45 188.58
  Q 198.80 175.74 193.07 164.82
  A 0.46 0.46 0.0 0 0 192.23 164.87
  Q 190.62 169.11 187.56 172.09"
/>
<path stroke="#225329" vector-effect="non-scaling-stroke" d="
  M 150.58 247.56
  L 144.45 259.92"
/>
<path stroke="#285a2e" vector-effect="non-scaling-stroke" d="
  M 144.45 259.92
  L 135.35 278.02"
/>
<path stroke="#316235" vector-effect="non-scaling-stroke" d="
  M 135.35 278.02
  L 124.02 299.47
  A 0.56 0.56 0.0 0 0 124.51 300.29
  L 152.45 300.29
  Q 153.47 300.29 153.92 299.38
  L 163.22 280.61
  Q 163.43 280.19 163.76 280.52
  Q 163.85 280.62 163.93 280.80"
/>
<path stroke="#2d5f32" vector-effect="non-scaling-stroke" d="
  M 221.25 219.94
  Q 222.06 225.24 223.41 227.80
  Q 227.66 235.84 231.24 244.29
  Q 231.44 244.76 230.94 244.86
  Q 218.50 247.52 205.98 247.10"
/>
<path stroke="#285a2e" vector-effect="non-scaling-stroke" d="
  M 205.98 247.10
  L 193.65 220.35
  A 0.98 0.98 0.0 0 0 192.02 220.12
  Q 189.61 222.91 187.84 226.54
  Q 183.83 234.79 179.81 243.03
  Q 178.91 244.86 176.77 248.22"
/>
<path stroke="#2d5f32" vector-effect="non-scaling-stroke" d="
  M 176.77 248.22
  L 150.58 247.56"
/>
<path stroke="#285a2e" vector-effect="non-scaling-stroke" d="
  M 150.58 247.56
  Q 158.06 232.98 165.27 218.62
  C 165.91 217.33 167.05 216.09 167.66 214.59
  Q 168.58 212.34 168.61 212.26
  Q 170.92 207.49 173.33 202.59"
/>
<path stroke="#2d5f32" vector-effect="non-scaling-stroke" d="
  M 221.73 286.94
  Q 221.82 286.78 222.37 286.57"
/>
<path stroke="#36683a" vector-effect="non-scaling-stroke" d="
  M 222.37 286.57
  L 228.66 299.36
  A 1.56 1.56 0.0 0 0 230.12 300.23
  Q 244.02 299.73 258.19 300.46
  A 0.87 0.87 0.0 0 0 259.01 299.20
  L 249.30 279.79"
/>
<path stroke="#2d5f32" vector-effect="non-scaling-stroke" d="
  M 249.30 279.79
  L 237.76 256.80
  Q 237.54 256.35 237.04 256.42
  Q 213.75 259.73 205.85 260.33
  Q 175.10 262.68 144.45 259.92"
/>
<path stroke="#3b6f3f" vector-effect="non-scaling-stroke" d="
  M 249.30 279.79
  Q 234.39 277.26 219.37 279.31
  Q 218.87 279.37 219.09 279.82
  L 222.37 286.57"
/>
<path stroke="#3b6f3f" vector-effect="non-scaling-stroke" d="
  M 207.54 279.66
  L 167.88 279.61
  Q 161.99 279.60 167.81 278.42
  Q 170.81 277.82 177.44 277.79
  Q 186.37 277.75 189.86 277.86
  Q 194.58 278.01 189.93 277.22
  C 183.25 276.08 175.72 276.57 169.74 276.40
  Q 161.57 276.17 156.21 276.74
  Q 153.33 277.04 142.84 279.18
  Q 139.42 279.88 135.35 278.02"
/>
<path stroke="#225329" vector-effect="non-scaling-stroke" d="
  M 205.98 247.10
  L 209.63 255.80
  A 0.46 0.46 0.0 0 1 209.24 256.44
  Q 194.85 257.37 180.27 256.88
  Q 176.75 256.76 174.10 256.16
  A 0.65 0.65 0.0 0 1 173.65 255.26
  L 176.77 248.22"
/>
<path stroke="#92aa95" vector-effect="non-scaling-stroke" d="
  M 228.63 168.29
  L 228.61 191.65
  Q 228.61 192.35 229.30 192.35
  L 266.39 192.35
  A 0.41 0.41 0.0 0 1 266.80 192.76
  L 266.69 268.31"
/>
<path stroke="#97b19a" vector-effect="non-scaling-stroke" d="
  M 266.69 268.31
  L 266.44 298.01"
/>
<path stroke="#a0baa1" vector-effect="non-scaling-stroke" d="
  M 266.44 298.01
  L 266.35 300.77
  A 0.67 0.67 0.0 0 0 267.02 301.46
  L 296.34 301.46
  A 0.76 0.76 0.0 0 0 297.10 300.67
  L 296.63 287.68"
/>
<path stroke="#97b19a" vector-effect="non-scaling-stroke" d="
  M 296.63 287.68
  L 296.60 273.04"
/>
<path stroke="#92aa95" vector-effect="non-scaling-stroke" d="
  M 296.60 273.04
  L 296.49 192.56"
/>
<path stroke="#a5bea6" vector-effect="non-scaling-stroke" d="
  M 296.49 192.56
  L 335.24 192.33
  Q 335.74 192.32 335.74 191.82
  L 335.63 170.71"
/>
<path stroke="#a9c2a9" vector-effect="non-scaling-stroke" d="
  M 335.63 170.71
  L 335.61 165.95"
/>
<path stroke="#97b19a" vector-effect="non-scaling-stroke" d="
  M 335.61 165.95
  Q 335.65 165.57 335.55 165.29
  Q 335.38 164.85 334.91 164.85
  L 229.29 164.85
  Q 228.85 164.85 228.74 165.28
  Q 228.40 166.69 228.63 168.29"
/>
<path stroke="#447746" vector-effect="non-scaling-stroke" d="
  M 335.61 165.95
  L 335.54 166.56
  Q 335.43 167.52 334.98 166.67
  L 334.79 166.33
  Q 334.53 165.85 333.99 165.85
  L 239.71 166.06"
/>
<path stroke="#2d5f32" vector-effect="non-scaling-stroke" d="
  M 239.71 166.06
  L 229.24 165.81
  Q 228.78 165.80 228.81 166.26
  Q 228.90 167.31 228.63 168.29"
/>
<path stroke="#3f7041" vector-effect="non-scaling-stroke" d="
  M 239.71 166.06
  L 230.73 166.24
  Q 230.21 166.25 230.19 166.77
  L 229.84 179.45"
/>
<path stroke="#3a6c3f" vector-effect="non-scaling-stroke" d="
  M 229.84 179.45
  L 229.89 190.10
  A 0.59 0.59 0.0 0 0 230.47 190.69
  L 256.46 191.18"
/>
<path stroke="#36683a" vector-effect="non-scaling-stroke" d="
  M 256.46 191.18
  L 266.62 191.39
  A 0.82 0.82 0.0 0 1 267.42 192.19
  L 267.90 220.26"
/>
<path stroke="#2d5f32" vector-effect="non-scaling-stroke" d="
  M 267.90 220.26
  L 268.65 237.81
  Q 268.68 238.34 269.19 238.21
  Q 283.44 234.81 287.49 233.96
  Q 291.32 233.16 294.45 230.82
  Q 294.85 230.52 294.85 230.02
  L 294.79 211.98"
/>
<path stroke="#36683a" vector-effect="non-scaling-stroke" d="
  M 294.79 211.98
  L 295.28 192.95"
/>
<path stroke="#3a6c3f" vector-effect="non-scaling-stroke" d="
  M 295.28 192.95
  L 296.49 192.56"
/>
<path stroke="#2d5f32" vector-effect="non-scaling-stroke" d="
  M 296.60 273.04
  L 296.15 277.88
  Q 296.12 278.17 295.85 278.07
  L 295.59 277.98
  Q 295.54 277.96 295.54 277.92
  Q 295.40 269.57 294.62 261.46
  Q 294.58 260.97 294.09 261.01
  Q 290.22 261.39 289.18 261.24
  Q 277.85 259.61 274.97 259.29
  Q 271.41 258.90 270.09 259.87
  Q 268.59 260.97 268.28 262.27
  Q 267.57 265.26 266.69 268.31"
/>
<path stroke="#528453" vector-effect="non-scaling-stroke" d="
  M 335.63 170.71
  L 335.56 169.23
  Q 335.52 168.51 335.07 169.07
  Q 334.71 169.51 334.70 170.09
  Q 334.56 179.79 333.80 188.80
  Q 333.76 189.28 333.28 189.28
  Q 317.68 189.42 310.46 188.83
  C 297.18 187.75 275.61 183.61 258.63 182.81
  Q 244.92 182.16 230.63 184.59
  Q 230.15 184.67 230.12 184.19
  L 229.84 179.45"
/>
<path stroke="#497b4b" vector-effect="non-scaling-stroke" d="
  M 295.28 192.95
  Q 292.53 195.77 288.57 196.02
  Q 280.35 196.53 274.03 195.70
  Q 270.61 195.25 267.91 191.55
  A 1.01 1.00 -18.0 0 0 267.10 191.14
  L 256.46 191.18"
/>
<path stroke="#3b6f3f" vector-effect="non-scaling-stroke" d="
  M 294.79 211.98
  C 286.38 217.13 277.80 219.20 267.90 220.26"
/>
<path stroke="#3b6f3f" vector-effect="non-scaling-stroke" d="
  M 296.63 287.68
  Q 292.86 282.04 287.13 280.90
  Q 277.03 278.89 272.87 278.32
  Q 269.59 277.87 267.86 280.35
  Q 267.57 280.77 267.57 281.28
  L 267.57 298.01
  Q 267.57 298.99 266.83 298.35
  L 266.44 298.01"
/>
<path stroke="#97b19a" vector-effect="non-scaling-stroke" d="
  M 342.94 199.17
  L 342.96 221.71"
/>
<path stroke="#8da590" vector-effect="non-scaling-stroke" d="
  M 342.96 221.71
  L 342.98 246.36"
/>
<path stroke="#92aa95" vector-effect="non-scaling-stroke" d="
  M 342.98 246.36
  L 343.13 279.29"
/>
<path stroke="#97b19a" vector-effect="non-scaling-stroke" d="
  M 343.13 279.29
  L 343.13 292.29"
/>
<path stroke="#a0baa1" vector-effect="non-scaling-stroke" d="
  M 343.13 292.29
  Q 342.97 293.80 343.26 294.76"
/>
<path stroke="#8da590" vector-effect="non-scaling-stroke" d="
  M 343.26 294.76
  L 343.16 300.61
  Q 343.14 301.47 344.00 301.47
  L 371.80 301.47
  A 0.37 0.37 0.0 0 0 372.17 301.10
  L 372.24 214.21"
/>
<path stroke="#a0baa1" vector-effect="non-scaling-stroke" d="
  M 372.24 214.21
  L 372.37 165.29
  A 0.43 0.43 0.0 0 0 371.94 164.86
  L 343.40 164.86
  A 0.58 0.58 0.0 0 0 342.82 165.44
  L 342.94 199.17"
/>
<path stroke="#316235" vector-effect="non-scaling-stroke" d="
  M 372.24 214.21
  L 371.96 177.37
  Q 371.96 177.21 371.85 177.10
  Q 371.73 176.98 371.61 176.93
  Q 371.26 176.80 371.22 177.18
  L 370.86 180.46"
/>
<path stroke="#497b4b" vector-effect="non-scaling-stroke" d="
  M 370.86 180.46
  L 370.76 176.75"
/>
<path stroke="#4d804e" vector-effect="non-scaling-stroke" d="
  M 370.76 176.75
  L 370.84 166.62
  Q 370.84 165.92 370.14 165.92
  L 344.56 165.92
  A 0.98 0.98 0.0 0 0 343.58 166.96
  L 344.15 177.69"
/>
<path stroke="#497b4b" vector-effect="non-scaling-stroke" d="
  M 344.15 177.69
  L 345.14 190.48
  Q 345.18 191.01 345.71 190.97
  Q 353.07 190.40 360.32 189.24
  Q 365.77 188.37 370.80 185.68"
/>
<path stroke="#316235" vector-effect="non-scaling-stroke" d="
  M 370.80 185.68
  L 370.64 205.44"
/>
<path stroke="#3b6f3f" vector-effect="non-scaling-stroke" d="
  M 370.64 205.44
  Q 368.39 209.58 364.91 210.38
  Q 355.68 212.51 347.45 214.89
  Q 345.74 215.39 345.43 213.63
  L 342.94 199.17"
/>
<path stroke="#35663a" vector-effect="non-scaling-stroke" d="
  M 370.86 180.46
  L 370.80 185.68"
/>
<path stroke="#528453" vector-effect="non-scaling-stroke" d="
  M 370.76 176.75
  Q 357.40 178.26 344.15 177.69"
/>
<path stroke="#316235" vector-effect="non-scaling-stroke" d="
  M 343.26 294.76
  Q 344.48 296.35 343.83 298.89
  A 1.18 1.18 0.0 0 0 345.16 300.34
  Q 346.84 300.07 349.24 300.18
  Q 359.83 300.68 366.50 300.19
  Q 366.52 300.19 369.17 300.32
  A 1.32 1.32 0.0 0 0 370.55 299.04
  L 370.85 286.31"
/>
<path stroke="#285a2e" vector-effect="non-scaling-stroke" d="
  M 370.85 286.31
  L 370.87 278.09"
/>
<path stroke="#225329" vector-effect="non-scaling-stroke" d="
  M 370.87 278.09
  L 370.85 265.50
  Q 370.85 265.00 370.40 264.77
  Q 355.60 257.10 342.98 246.36"
/>
<path stroke="#285a2e" vector-effect="non-scaling-stroke" d="
  M 342.96 221.71
  Q 346.56 221.70 349.96 220.89
  Q 359.97 218.53 369.67 216.47
  A 1.53 1.52 -6.9 0 0 370.87 214.95
  L 370.64 205.44"
/>
<path stroke="#3b6f3f" vector-effect="non-scaling-stroke" d="
  M 370.85 286.31
  Q 367.71 281.85 362.22 280.11
  Q 356.32 278.23 352.94 277.36
  Q 350.10 276.63 348.57 277.09
  Q 346.39 277.75 344.63 279.60
  Q 343.35 280.93 343.26 284.00
  Q 343.14 288.13 343.13 292.29"
/>
<path stroke="#2d5f32" vector-effect="non-scaling-stroke" d="
  M 370.87 278.09
  C 362.42 271.93 353.51 267.77 343.69 273.31
  Q 343.24 273.56 343.23 274.06
  L 343.13 279.29"
/>
<path stroke="#8da590" vector-effect="non-scaling-stroke" d="
  M 510.91 204.01
  L 490.00 252.27"
/>
<path stroke="#92aa95" vector-effect="non-scaling-stroke" d="
  M 490.00 252.27
  C 481.18 268.29 463.79 275.91 446.02 272.67
  C 428.96 269.57 416.69 257.15 413.27 240.27
  Q 412.90 238.42 412.11 240.14
  Q 402.71 260.51 396.75 274.39
  Q 396.34 275.35 396.47 276.12
  Q 396.64 277.12 397.20 277.79
  Q 409.17 292.24 426.52 299.52"
/>
<path stroke="#a0baa1" vector-effect="non-scaling-stroke" d="
  M 426.52 299.52
  Q 446.02 306.55 466.63 302.88
  Q 473.05 301.73 479.02 299.34"
/>
<path stroke="#97b19a" vector-effect="non-scaling-stroke" d="
  M 479.02 299.34
  Q 488.55 295.68 498.29 288.54
  Q 510.74 279.42 517.93 266.76"
/>
<path stroke="#92aa95" vector-effect="non-scaling-stroke" d="
  M 517.93 266.76
  Q 523.94 255.89 525.86 243.01"
/>
<path stroke="#8da590" vector-effect="non-scaling-stroke" d="
  M 525.86 243.01
  Q 527.49 229.35 524.74 215.68"
/>
<path stroke="#97b19a" vector-effect="non-scaling-stroke" d="
  M 524.74 215.68
  Q 523.14 208.16 519.30 201.41
  Q 517.53 198.31 515.96 195.40
  A 0.93 0.93 0.0 0 0 514.28 195.50
  L 510.91 204.01"
/>
<path stroke="#285a2e" vector-effect="non-scaling-stroke" d="
  M 524.74 215.68
  Q 522.22 219.76 516.92 218.88
  Q 511.18 217.92 507.34 216.29
  Q 506.87 216.09 507.06 215.62
  L 511.19 205.17"
/>
<path stroke="#407344" vector-effect="non-scaling-stroke" d="
  M 511.19 205.17
  L 520.00 205.98
  Q 520.57 206.03 520.35 205.50
  Q 518.52 201.07 515.66 196.91
  Q 515.26 196.33 514.97 196.97
  L 511.37 205.09"
/>
<path stroke="#285a2e" vector-effect="non-scaling-stroke" d="
  M 511.37 205.09
  Q 511.29 204.32 510.91 204.01"
/>
<path stroke="#225329" vector-effect="non-scaling-stroke" d="
  M 525.86 243.01
  L 490.00 252.27"
/>
<path stroke="#35663a" vector-effect="non-scaling-stroke" d="
  M 511.19 205.17
  Q 511.28 205.13 511.37 205.09"
/>
<path stroke="#2d5f32" vector-effect="non-scaling-stroke" d="
  M 517.93 266.76
  C 500.78 270.91 485.49 272.16 466.87 273.46
  Q 466.76 273.47 458.40 274.35
  Q 450.94 275.14 442.99 273.42
  Q 437.62 272.26 434.83 272.10
  Q 416.70 271.08 399.17 273.45
  Q 398.67 273.52 398.32 273.88
  Q 396.52 275.76 398.46 278.04
  Q 406.38 287.34 416.23 293.14"
/>
<path stroke="#36683a" vector-effect="non-scaling-stroke" d="
  M 416.23 293.14
  Q 421.30 296.20 426.59 298.72
  Q 427.03 298.94 426.52 299.52"
/>
<path stroke="#3b6f3f" vector-effect="non-scaling-stroke" d="
  M 479.02 299.34
  L 493.23 290.68
  Q 493.67 290.41 493.15 290.40
  C 477.67 290.11 458.92 290.30 446.01 290.68
  Q 431.08 291.11 416.23 293.14"
/>
<path stroke="#528453" vector-effect="non-scaling-stroke" d="
  M 535.79 165.06
  Q 535.79 165.07 535.68 174.00
  Q 535.66 175.56 537.05 176.28
  Q 540.27 177.95 541.66 178.28
  Q 541.78 178.31 553.30 180.97
  A 0.32 0.32 0.0 0 0 553.59 180.43
  L 536.95 164.60
  Q 535.44 163.16 535.79 165.06"
/>
<path stroke="#8da590" vector-effect="non-scaling-stroke" d="
  M 175.13 255.28
  A 0.31 0.31 0.0 0 0 175.40 255.73
  L 208.59 256.07
  A 0.31 0.31 0.0 0 0 208.87 255.63
  L 192.64 220.58
  A 0.31 0.31 0.0 0 0 192.08 220.58
  L 175.13 255.28"
/>
</g>
<path fill="#fcfcfc" d="
  M 652.00 1.01
  L 652.00 308.00
  L 1.05 308.00
  L 1.09 1.51
  Q 1.09 1.01 1.59 1.01
  L 652.00 1.01
  Z
  M 138.74 44.04
  Q 135.15 49.81 134.13 52.41
  Q 129.62 63.81 126.41 70.66
  Q 121.85 80.39 114.40 89.69
  Q 109.75 95.62 104.05 100.54
  Q 103.20 101.26 102.25 101.88
  Q 102.02 102.09 101.90 102.34
  L 97.71 105.28
  Q 88.29 111.28 79.25 113.00
  Q 69.88 114.79 59.48 114.62
  Q 54.49 114.54 38.75 114.55
  Q 37.19 114.55 37.17 113.22
  L 37.19 79.46
  L 37.41 38.49
  Q 37.42 38.14 37.77 38.15
  L 61.73 38.36
  C 73.72 39.03 86.09 44.44 92.64 54.70
  Q 95.85 59.74 97.31 64.66
  Q 98.69 69.30 98.72 77.34
  Q 98.73 81.84 97.50 86.06
  Q 95.64 92.42 94.29 94.34
  Q 92.96 96.24 91.22 97.76
  Q 89.59 99.19 91.51 98.18
  Q 96.06 95.79 100.56 92.53
  Q 103.76 90.21 105.86 87.84
  Q 108.78 84.53 110.27 82.29
  Q 117.91 70.86 122.92 57.24
  Q 123.31 56.18 123.21 55.17
  Q 123.12 54.17 122.82 53.06
  Q 119.86 41.81 112.71 32.45
  C 100.38 16.39 80.43 9.01 60.24 8.54
  Q 34.45 7.94 8.48 8.54
  Q 7.98 8.56 7.98 9.06
  L 8.15 80.29
  L 8.28 115.30
  L 8.31 142.99
  Q 8.07 144.47 9.00 144.48
  C 27.42 144.64 45.84 144.37 64.26 144.49
  Q 96.78 144.71 121.77 125.39
  Q 128.51 120.19 133.94 113.82
  Q 139.38 107.43 143.98 100.24
  Q 150.09 90.68 156.50 78.98
  Q 158.14 75.98 163.60 63.83
  Q 170.86 50.95 180.65 44.41
  Q 190.38 37.91 201.74 37.44
  Q 219.79 36.70 232.88 49.27
  Q 237.81 54.00 242.42 62.00
  C 242.98 62.97 243.16 64.43 243.58 65.41
  Q 244.76 68.14 245.34 65.22
  C 245.91 62.40 246.91 57.93 248.72 54.17
  Q 249.71 52.11 251.96 45.82
  Q 254.36 39.10 257.07 32.45
  L 258.39 29.92
  Q 258.69 29.34 258.17 29.21
  L 256.69 28.83
  A 1.07 0.80 67.2 0 1 256.28 28.59
  Q 248.41 20.90 241.24 16.31
  Q 225.61 6.30 204.61 5.64
  Q 195.91 5.36 188.26 6.97
  Q 166.20 11.60 150.48 28.23
  Q 143.71 35.39 138.74 44.04
  Z
  M 262.15 39.45
  Q 260.62 43.77 254.58 57.10
  Q 253.14 60.29 250.03 70.28
  Q 248.91 73.88 243.63 85.79
  Q 242.35 88.68 241.45 91.18
  Q 239.85 95.63 239.34 96.59
  Q 234.51 105.53 225.70 110.42
  Q 218.29 114.54 212.29 115.95
  Q 205.97 117.44 197.98 116.17
  Q 179.73 113.28 169.07 97.94
  Q 164.31 91.09 163.54 83.20
  Q 163.23 79.95 162.17 83.04
  C 160.97 86.54 159.02 89.56 157.16 92.70
  Q 150.69 103.58 143.59 112.39
  Q 142.98 113.14 143.54 113.93
  C 156.33 132.07 175.86 144.52 198.00 146.43
  Q 229.55 149.15 253.25 128.18
  Q 269.74 113.59 274.18 89.92
  Q 274.96 85.77 275.11 79.47
  Q 275.28 72.40 275.06 69.00
  Q 274.59 61.77 271.47 52.88
  Q 268.47 44.38 263.89 36.44
  A 0.45 0.45 0.0 0 0 263.08 36.53
  L 262.15 39.45
  Z
  M 288.59 81.07
  L 288.36 94.29
  A 0.47 0.46 -90.0 0 0 288.82 94.76
  L 333.61 94.76
  A 0.33 0.32 90.0 0 0 333.93 94.43
  L 333.93 67.92
  A 0.94 0.93 90.0 0 0 333.00 66.98
  L 322.96 66.95
  L 290.51 67.00
  L 289.48 67.20
  A 1.04 1.04 0.0 0 0 288.63 68.22
  L 288.59 81.07
  Z
  M 534.45 190.61
  L 534.57 200.62
  L 534.57 262.26
  L 534.74 301.02
  Q 534.74 301.53 535.24 301.53
  L 547.82 301.55
  L 562.74 301.58
  A 0.34 0.34 0.0 0 0 563.08 301.24
  L 563.14 226.46
  L 610.51 271.82
  L 618.72 279.57
  L 643.09 302.31
  A 0.64 0.64 0.0 0 0 644.17 301.84
  L 644.17 165.29
  Q 644.17 164.85 643.73 164.85
  L 616.11 165.34
  L 616.06 196.53
  L 616.06 208.55
  L 616.23 238.04
  Q 616.16 238.19 616.04 238.24
  L 572.03 196.57
  L 534.91 161.15
  A 0.25 0.25 0.0 0 0 534.48 161.33
  L 534.45 190.61
  Z
  M 8.61 185.52
  L 8.48 211.69
  L 8.52 264.23
  L 8.59 301.00
  A 0.38 0.37 0.8 0 0 8.96 301.37
  L 31.29 301.42
  L 36.64 301.46
  A 0.43 0.43 0.0 0 0 37.07 301.03
  L 37.09 283.99
  L 37.16 235.21
  L 37.34 226.13
  L 72.50 260.08
  L 94.85 280.70
  L 116.98 300.88
  A 1.58 1.57 -78.6 0 1 117.39 301.50
  Q 117.73 302.46 118.67 302.36
  A 0.60 0.59 -3.3 0 0 119.20 301.77
  L 119.20 165.26
  Q 119.20 164.83 118.76 164.83
  L 91.32 164.83
  Q 90.83 164.83 90.64 165.27
  Q 90.51 165.58 90.49 165.96
  L 90.67 198.45
  L 90.45 211.54
  L 90.58 238.60
  Q 90.58 239.08 90.23 238.75
  L 66.31 215.95
  L 45.44 195.98
  L 9.14 161.43
  A 0.32 0.31 -68.4 0 0 8.61 161.66
  L 8.61 185.52
  Z
  M 428.80 165.88
  Q 405.22 174.83 391.19 195.67
  Q 387.18 201.62 384.80 207.85
  Q 381.06 217.50 380.34 224.61
  Q 379.34 234.49 380.04 249.75
  Q 380.32 255.90 380.68 286.58
  Q 380.68 287.10 380.48 287.65
  Q 380.20 288.41 380.21 288.73
  Q 380.28 290.64 381.31 289.03
  Q 382.28 287.52 382.36 285.92
  Q 383.51 284.64 383.57 283.65
  Q 397.83 253.77 411.96 224.46
  Q 413.51 221.23 416.74 215.48
  Q 421.40 207.20 428.29 201.71
  Q 438.76 194.19 450.13 193.34
  Q 472.89 191.63 486.92 210.23
  Q 491.53 216.34 494.04 223.19
  Q 494.27 223.80 494.52 223.20
  Q 499.89 210.25 508.38 191.37
  C 508.81 190.42 509.42 189.83 510.02 189.06
  Q 510.37 188.61 510.00 188.17
  L 506.32 183.80
  Q 492.16 169.42 472.77 164.42
  Q 450.38 159.05 428.80 165.88
  Z
  M 187.56 172.09
  Q 185.71 174.37 184.65 177.69
  L 175.43 195.68
  L 122.88 300.79
  Q 122.64 301.28 123.19 301.28
  L 153.52 301.28
  A 0.62 0.61 -76.7 0 0 154.07 300.94
  L 163.93 280.80
  Q 164.07 279.67 164.75 279.68
  Q 186.15 279.82 207.54 279.66
  L 217.38 279.83
  A 1.06 1.06 0.0 0 1 218.28 280.39
  L 221.73 286.94
  L 228.70 300.85
  Q 228.94 301.33 229.48 301.33
  L 259.99 301.33
  Q 260.92 301.33 260.51 300.50
  L 221.25 219.94
  L 207.80 192.38
  L 193.12 162.80
  A 0.63 0.63 0.0 0 0 191.99 162.81
  L 187.56 172.09
  Z
  M 228.63 168.29
  L 228.61 191.65
  Q 228.61 192.35 229.30 192.35
  L 266.39 192.35
  A 0.41 0.41 0.0 0 1 266.80 192.76
  L 266.69 268.31
  L 266.44 298.01
  L 266.35 300.77
  A 0.67 0.67 0.0 0 0 267.02 301.46
  L 296.34 301.46
  A 0.76 0.76 0.0 0 0 297.10 300.67
  L 296.63 287.68
  L 296.60 273.04
  L 296.49 192.56
  L 335.24 192.33
  Q 335.74 192.32 335.74 191.82
  L 335.63 170.71
  L 335.61 165.95
  Q 335.65 165.57 335.55 165.29
  Q 335.38 164.85 334.91 164.85
  L 229.29 164.85
  Q 228.85 164.85 228.74 165.28
  Q 228.40 166.69 228.63 168.29
  Z
  M 342.94 199.17
  L 342.96 221.71
  L 342.98 246.36
  L 343.13 279.29
  L 343.13 292.29
  Q 342.97 293.80 343.26 294.76
  L 343.16 300.61
  Q 343.14 301.47 344.00 301.47
  L 371.80 301.47
  A 0.37 0.37 0.0 0 0 372.17 301.10
  L 372.24 214.21
  L 372.37 165.29
  A 0.43 0.43 0.0 0 0 371.94 164.86
  L 343.40 164.86
  A 0.58 0.58 0.0 0 0 342.82 165.44
  L 342.94 199.17
  Z
  M 510.91 204.01
  L 490.00 252.27
  C 481.18 268.29 463.79 275.91 446.02 272.67
  C 428.96 269.57 416.69 257.15 413.27 240.27
  Q 412.90 238.42 412.11 240.14
  Q 402.71 260.51 396.75 274.39
  Q 396.34 275.35 396.47 276.12
  Q 396.64 277.12 397.20 277.79
  Q 409.17 292.24 426.52 299.52
  Q 446.02 306.55 466.63 302.88
  Q 473.05 301.73 479.02 299.34
  Q 488.55 295.68 498.29 288.54
  Q 510.74 279.42 517.93 266.76
  Q 523.94 255.89 525.86 243.01
  Q 527.49 229.35 524.74 215.68
  Q 523.14 208.16 519.30 201.41
  Q 517.53 198.31 515.96 195.40
  A 0.93 0.93 0.0 0 0 514.28 195.50
  L 510.91 204.01
  Z"
/>
<path fill="#568855" d="
  M 257.07 32.45
  Q 257.05 31.31 256.26 32.94
  Q 255.20 35.15 254.06 37.32
  L 218.14 38.81
  Q 206.12 35.13 194.70 37.43
  Q 185.45 39.28 178.31 45.19
  Q 168.18 43.71 158.24 47.54
  Q 148.79 51.18 139.44 55.05
  Q 137.37 55.91 133.85 55.95
  Q 135.88 49.85 139.64 44.69
  Q 140.04 44.14 139.37 44.09
  L 138.74 44.04
  Q 143.71 35.39 150.48 28.23
  Q 166.20 11.60 188.26 6.97
  Q 195.91 5.36 204.61 5.64
  Q 225.61 6.30 241.24 16.31
  Q 248.41 20.90 256.28 28.59
  A 1.07 0.80 67.2 0 0 256.69 28.83
  L 258.17 29.21
  Q 258.69 29.34 258.39 29.92
  L 257.07 32.45
  Z"
/>
<path fill="#568855" d="
  M 112.71 32.45
  L 112.29 32.61
  A 0.46 0.45 -32.4 0 0 112.12 33.35
  Q 114.56 35.92 116.16 39.01
  Q 119.16 44.80 121.12 49.92
  Q 122.32 53.09 121.92 55.80
  Q 121.47 58.84 120.03 61.70
  Q 108.58 62.39 97.38 61.52
  Q 96.17 59.25 95.08 56.96
  Q 93.89 54.49 93.15 53.65
  Q 91.33 51.60 89.91 49.92
  Q 86.40 45.79 79.80 42.27
  Q 75.56 40.02 72.58 39.50
  C 69.66 38.99 65.52 36.99 61.86 37.86
  Q 61.73 37.89 61.83 37.98
  Q 61.96 38.09 62.07 38.12
  Q 62.28 38.19 62.07 38.27
  Q 61.92 38.33 61.73 38.36
  L 37.77 38.15
  Q 37.42 38.14 37.41 38.49
  L 37.19 79.46
  L 36.90 59.73
  Q 36.89 59.21 36.53 59.59
  L 35.93 60.22
  A 0.39 0.36 -25.7 0 0 35.83 60.47
  L 35.36 70.45
  Q 22.39 72.93 9.28 74.00
  L 8.87 63.57
  Q 8.86 63.32 8.63 63.39
  L 8.35 63.46
  Q 8.33 63.46 8.33 63.48
  L 8.15 80.29
  L 7.98 9.06
  Q 7.98 8.56 8.48 8.54
  Q 34.45 7.94 60.24 8.54
  C 80.43 9.01 100.38 16.39 112.71 32.45
  Z"
/>
<path fill="#27582d" d="
  M 257.07 32.45
  Q 254.36 39.10 251.96 45.82
  Q 249.71 52.11 248.72 54.17
  C 246.91 57.93 245.91 62.40 245.34 65.22
  Q 244.76 68.14 243.58 65.41
  C 243.16 64.43 242.98 62.97 242.42 62.00
  Q 237.81 54.00 232.88 49.27
  Q 219.79 36.70 201.74 37.44
  Q 190.38 37.91 180.65 44.41
  Q 170.86 50.95 163.60 63.83
  Q 156.74 74.26 151.15 85.93
  Q 150.63 87.01 148.38 89.47
  Q 148.04 89.84 147.54 89.92
  Q 137.79 91.48 127.63 92.91
  C 122.59 93.62 118.02 93.56 114.40 89.69
  Q 121.85 80.39 126.41 70.66
  Q 129.62 63.81 134.13 52.41
  Q 135.15 49.81 138.74 44.04
  L 139.37 44.09
  Q 140.04 44.14 139.64 44.69
  Q 135.88 49.85 133.85 55.95
  Q 132.60 58.16 131.67 60.57
  Q 129.88 65.20 129.86 65.22
  Q 124.96 76.44 118.12 86.52
  Q 116.58 88.79 118.91 87.34
  Q 133.06 78.57 158.52 63.27
  Q 165.57 59.03 171.05 52.08
  Q 172.54 50.19 174.53 48.51
  Q 176.32 47.00 178.31 45.19
  Q 185.45 39.28 194.70 37.43
  Q 206.12 35.13 218.14 38.81
  Q 224.18 41.21 227.85 43.66
  Q 234.52 48.13 240.65 56.56
  Q 240.81 56.77 242.31 59.37
  Q 243.20 60.92 244.26 62.03
  Q 244.62 62.41 244.74 61.90
  Q 245.77 57.30 249.05 50.15
  C 251.05 45.79 252.46 41.63 254.06 37.32
  Q 255.20 35.15 256.26 32.94
  Q 257.05 31.31 257.07 32.45
  Z"
/>
<path fill="#326637" d="
  M 112.71 32.45
  Q 119.86 41.81 122.82 53.06
  Q 123.12 54.17 123.21 55.17
  Q 123.31 56.18 122.92 57.24
  Q 117.91 70.86 110.27 82.29
  Q 108.78 84.53 105.86 87.84
  Q 103.76 90.21 100.56 92.53
  Q 96.06 95.79 91.51 98.18
  Q 89.59 99.19 91.22 97.76
  Q 92.96 96.24 94.29 94.34
  Q 95.64 92.42 97.50 86.06
  Q 98.73 81.84 98.72 77.34
  Q 98.69 69.30 97.31 64.66
  Q 95.85 59.74 92.64 54.70
  C 86.09 44.44 73.72 39.03 61.73 38.36
  Q 61.92 38.33 62.07 38.27
  Q 62.28 38.19 62.07 38.12
  Q 61.96 38.09 61.83 37.98
  Q 61.73 37.89 61.86 37.86
  C 65.52 36.99 69.66 38.99 72.58 39.50
  Q 75.56 40.02 79.80 42.27
  Q 86.40 45.79 89.91 49.92
  Q 91.33 51.60 93.15 53.65
  Q 93.89 54.49 95.08 56.96
  Q 96.17 59.25 97.38 61.52
  Q 99.09 66.89 99.81 71.60
  Q 100.53 76.30 99.34 81.21
  Q 99.01 82.57 99.00 84.22
  C 98.97 87.33 97.45 90.22 96.44 92.78
  Q 95.76 94.51 97.32 93.49
  Q 103.94 89.16 108.59 82.86
  Q 114.36 75.02 120.03 61.70
  Q 121.47 58.84 121.92 55.80
  Q 122.32 53.09 121.12 49.92
  Q 119.16 44.80 116.16 39.01
  Q 114.56 35.92 112.12 33.35
  A 0.46 0.45 -32.4 0 1 112.29 32.61
  L 112.71 32.45
  Z"
/>
<path fill="#447746" d="
  M 271.47 52.88
  Q 271.80 57.73 272.65 62.47
  Q 273.70 68.32 273.79 72.02
  Q 273.90 77.00 273.85 81.77
  Q 273.85 82.39 273.23 82.46
  L 246.51 85.21
  A 0.57 0.57 0.0 0 1 245.90 84.50
  Q 247.02 80.12 249.52 74.11
  Q 250.78 71.09 252.22 66.46
  Q 254.34 59.63 254.75 58.76
  Q 259.38 49.06 262.50 40.49
  Q 263.00 39.11 262.15 39.45
  L 263.08 36.53
  A 0.45 0.45 0.0 0 1 263.89 36.44
  Q 268.47 44.38 271.47 52.88
  Z"
/>
<path fill="#447746" d="
  M 254.06 37.32
  C 252.46 41.63 251.05 45.79 249.05 50.15
  Q 245.77 57.30 244.74 61.90
  Q 244.62 62.41 244.26 62.03
  Q 243.20 60.92 242.31 59.37
  Q 240.81 56.77 240.65 56.56
  Q 234.52 48.13 227.85 43.66
  Q 224.18 41.21 218.14 38.81
  L 254.06 37.32
  Z"
/>
<path fill="#1d4d24" d="
  M 271.47 52.88
  Q 274.59 61.77 275.06 69.00
  Q 275.28 72.40 275.11 79.47
  Q 274.96 85.77 274.18 89.92
  Q 269.74 113.59 253.25 128.18
  Q 229.55 149.15 198.00 146.43
  C 175.86 144.52 156.33 132.07 143.54 113.93
  Q 142.98 113.14 143.59 112.39
  Q 150.69 103.58 157.16 92.70
  C 159.02 89.56 160.97 86.54 162.17 83.04
  Q 163.23 79.95 163.54 83.20
  Q 164.31 91.09 169.07 97.94
  Q 179.73 113.28 197.98 116.17
  Q 205.97 117.44 212.29 115.95
  Q 218.29 114.54 225.70 110.42
  Q 234.51 105.53 239.34 96.59
  Q 239.85 95.63 241.45 91.18
  Q 242.35 88.68 243.63 85.79
  Q 248.91 73.88 250.03 70.28
  Q 253.14 60.29 254.58 57.10
  Q 260.62 43.77 262.15 39.45
  Q 263.00 39.11 262.50 40.49
  Q 259.38 49.06 254.75 58.76
  Q 254.34 59.63 252.22 66.46
  Q 250.78 71.09 249.52 74.11
  Q 247.02 80.12 245.90 84.50
  A 0.57 0.57 0.0 0 0 246.51 85.21
  L 273.23 82.46
  Q 273.85 82.39 273.85 81.77
  Q 273.90 77.00 273.79 72.02
  Q 273.70 68.32 272.65 62.47
  Q 271.80 57.73 271.47 52.88
  Z"
/>
<path fill="#4d7f50" d="
  M 178.31 45.19
  Q 176.32 47.00 174.53 48.51
  Q 172.54 50.19 171.05 52.08
  Q 165.57 59.03 158.52 63.27
  Q 133.06 78.57 118.91 87.34
  Q 116.58 88.79 118.12 86.52
  Q 124.96 76.44 129.86 65.22
  Q 129.88 65.20 131.67 60.57
  Q 132.60 58.16 133.85 55.95
  Q 137.37 55.91 139.44 55.05
  Q 148.79 51.18 158.24 47.54
  Q 168.18 43.71 178.31 45.19
  Z"
/>
<path fill="#447746" d="
  M 37.19 79.46
  L 37.17 113.22
  L 37.02 97.93
  A 0.27 0.27 0.0 0 0 36.93 97.73
  L 36.43 97.26
  A 0.23 0.23 0.0 0 0 36.04 97.41
  L 35.16 113.82
  Q 35.13 114.32 34.63 114.38
  Q 32.12 114.68 25.79 116.25
  Q 21.58 117.29 16.48 117.80
  C 12.89 118.15 10.41 117.48 8.90 114.20
  Q 8.60 113.55 8.47 114.26
  L 8.28 115.30
  L 8.15 80.29
  L 8.33 63.48
  Q 8.33 63.46 8.35 63.46
  L 8.63 63.39
  Q 8.86 63.32 8.87 63.57
  L 9.28 74.00
  L 9.90 84.57
  Q 9.93 85.09 10.45 85.06
  Q 18.23 84.72 25.82 83.20
  C 32.84 81.80 34.67 77.03 35.36 70.45
  L 35.83 60.47
  A 0.39 0.36 -25.7 0 1 35.93 60.22
  L 36.53 59.59
  Q 36.89 59.21 36.90 59.73
  L 37.19 79.46
  Z"
/>
<path fill="#447746" d="
  M 120.03 61.70
  Q 114.36 75.02 108.59 82.86
  Q 103.94 89.16 97.32 93.49
  Q 95.76 94.51 96.44 92.78
  C 97.45 90.22 98.97 87.33 99.00 84.22
  Q 99.01 82.57 99.34 81.21
  Q 100.53 76.30 99.81 71.60
  Q 99.09 66.89 97.38 61.52
  Q 108.58 62.39 120.03 61.70
  Z"
/>
<path fill="#1d4d24" d="
  M 163.60 63.83
  Q 158.14 75.98 156.50 78.98
  Q 150.09 90.68 143.98 100.24
  Q 139.38 107.43 133.94 113.82
  Q 128.51 120.19 121.77 125.39
  Q 96.78 144.71 64.26 144.49
  C 45.84 144.37 27.42 144.64 9.00 144.48
  Q 8.07 144.47 8.31 142.99
  Q 21.54 141.89 32.00 138.58
  Q 40.26 135.96 69.93 125.27
  Q 79.25 121.91 87.64 115.11
  Q 89.30 113.77 92.26 110.11
  Q 93.26 108.87 94.92 107.65
  Q 96.39 106.57 97.71 105.28
  L 101.90 102.34
  Q 102.02 102.69 102.35 102.35
  Q 102.73 101.98 102.25 101.88
  Q 103.20 101.26 104.05 100.54
  Q 109.75 95.62 114.40 89.69
  C 118.02 93.56 122.59 93.62 127.63 92.91
  Q 137.79 91.48 147.54 89.92
  Q 148.04 89.84 148.38 89.47
  Q 150.63 87.01 151.15 85.93
  Q 156.74 74.26 163.60 63.83
  Z"
/>
<path fill="#568855" d="
  M 290.51 67.00
  L 291.10 80.63
  L 288.59 81.07
  L 288.63 68.22
  A 1.04 1.04 0.0 0 1 289.48 67.20
  L 290.51 67.00
  Z"
/>
<path fill="#447746" d="
  M 322.96 66.95
  L 319.15 67.30
  Q 318.95 67.32 318.96 67.51
  L 318.96 67.52
  Q 318.96 67.73 319.18 67.72
  Q 325.79 67.28 332.01 69.42
  Q 332.50 69.58 332.00 69.72
  L 291.10 80.63
  L 290.51 67.00
  L 322.96 66.95
  Z"
/>
<path fill="#27582d" d="
  M 288.59 81.07
  L 291.10 80.63
  L 332.00 69.72
  Q 332.50 69.58 332.01 69.42
  Q 325.79 67.28 319.18 67.72
  Q 318.96 67.73 318.96 67.52
  L 318.96 67.51
  Q 318.95 67.32 319.15 67.30
  L 322.96 66.95
  L 333.00 66.98
  A 0.94 0.93 -90.0 0 1 333.93 67.92
  L 333.93 94.43
  A 0.33 0.32 90.0 0 1 333.61 94.76
  L 288.82 94.76
  A 0.47 0.46 90.0 0 1 288.36 94.29
  L 288.59 81.07
  Z"
/>
<path fill="#4d7f50" d="
  M 35.36 70.45
  C 34.67 77.03 32.84 81.80 25.82 83.20
  Q 18.23 84.72 10.45 85.06
  Q 9.93 85.09 9.90 84.57
  L 9.28 74.00
  Q 22.39 72.93 35.36 70.45
  Z"
/>
<path fill="#27582d" d="
  M 37.17 113.22
  Q 37.19 114.55 38.75 114.55
  Q 54.49 114.54 59.48 114.62
  Q 69.88 114.79 79.25 113.00
  Q 88.29 111.28 97.71 105.28
  Q 96.39 106.57 94.92 107.65
  Q 93.26 108.87 92.26 110.11
  Q 89.30 113.77 87.64 115.11
  Q 79.25 121.91 69.93 125.27
  Q 40.26 135.96 32.00 138.58
  Q 21.54 141.89 8.31 142.99
  L 8.28 115.30
  L 8.47 114.26
  Q 8.60 113.55 8.90 114.20
  C 10.41 117.48 12.89 118.15 16.48 117.80
  Q 21.58 117.29 25.79 116.25
  Q 32.12 114.68 34.63 114.38
  Q 35.13 114.32 35.16 113.82
  L 36.04 97.41
  A 0.23 0.23 0.0 0 1 36.43 97.26
  L 36.93 97.73
  A 0.27 0.27 0.0 0 1 37.02 97.93
  L 37.17 113.22
  Z"
/>
<path fill="#568855" d="
  M 102.25 101.88
  Q 102.73 101.98 102.35 102.35
  Q 102.02 102.69 101.90 102.34
  Q 102.02 102.09 102.25 101.88
  Z"
/>
<path fill="#4d7f50" d="
  M 572.03 196.57
  Q 574.22 200.61 578.24 203.64
  Q 566.17 203.39 554.34 201.68
  Q 542.37 199.95 534.45 190.61
  L 534.48 161.33
  A 0.25 0.25 0.0 0 1 534.91 161.15
  L 572.03 196.57
  Z
  M 535.79 165.06
  Q 535.79 165.07 535.68 174.00
  Q 535.66 175.56 537.05 176.28
  Q 540.27 177.95 541.66 178.28
  Q 541.78 178.31 553.30 180.97
  A 0.32 0.32 0.0 0 0 553.59 180.43
  L 536.95 164.60
  Q 535.44 163.16 535.79 165.06
  Z"
/>
<path fill="#4d7f50" d="
  M 45.44 195.98
  Q 45.74 197.92 48.85 200.22
  Q 29.00 200.90 9.74 197.22
  L 9.46 188.92
  Q 23.43 190.45 37.48 189.99
  Q 37.96 189.98 37.61 189.64
  L 10.38 163.91
  A 0.34 0.34 0.0 0 0 9.80 164.15
  L 9.45 183.03
  L 9.25 189.04
  Q 9.24 189.33 9.02 189.28
  L 9.01 189.28
  A 0.26 0.22 9.5 0 1 8.80 189.03
  Q 8.99 187.26 8.61 185.52
  L 8.61 161.66
  A 0.32 0.31 -68.4 0 1 9.14 161.43
  L 45.44 195.98
  Z"
/>
<path fill="#568855" d="
  M 472.77 164.42
  Q 472.69 164.79 472.82 165.18
  Q 472.99 165.69 473.50 165.82
  Q 482.59 168.18 491.03 173.07
  Q 496.30 176.12 499.98 179.60
  Q 500.37 179.98 499.83 180.04
  Q 486.65 181.64 482.85 181.67
  Q 459.89 181.85 436.94 182.08
  Q 424.34 182.21 406.17 180.69
  Q 410.58 176.41 415.63 173.63
  Q 420.73 170.82 428.78 167.02
  Q 429.16 166.84 429.31 166.59
  Q 429.65 166.01 428.80 165.88
  Q 450.38 159.05 472.77 164.42
  Z"
/>
<path fill="#447746" d="
  M 207.80 192.38
  Q 208.13 195.69 209.17 197.65
  Q 212.10 203.20 214.18 208.53
  Q 214.36 209.00 213.86 209.03
  Q 203.63 209.47 199.13 209.22
  Q 186.35 208.49 173.33 202.59
  Q 174.91 199.43 175.43 195.68
  L 184.65 177.69
  L 182.75 185.27
  Q 182.63 185.77 183.13 185.85
  L 203.97 189.20
  Q 204.78 189.33 204.45 188.58
  Q 198.80 175.74 193.07 164.82
  A 0.46 0.46 0.0 0 0 192.23 164.87
  Q 190.62 169.11 187.56 172.09
  L 191.99 162.81
  A 0.63 0.63 0.0 0 1 193.12 162.80
  L 207.80 192.38
  Z"
/>
<path fill="#568855" d="
  M 9.46 188.92
  L 9.45 183.03
  L 9.80 164.15
  A 0.34 0.34 0.0 0 1 10.38 163.91
  L 37.61 189.64
  Q 37.96 189.98 37.48 189.99
  Q 23.43 190.45 9.46 188.92
  Z"
/>
<path fill="#568855" d="
  M 536.95 164.60
  L 553.59 180.43
  A 0.32 0.32 0.0 0 1 553.30 180.97
  Q 541.78 178.31 541.66 178.28
  Q 540.27 177.95 537.05 176.28
  Q 535.66 175.56 535.68 174.00
  Q 535.79 165.07 535.79 165.06
  Q 535.44 163.16 536.95 164.60
  Z"
/>
<path fill="#4d7f50" d="
  M 506.32 183.80
  C 506.33 185.79 507.92 186.84 508.87 188.34
  Q 509.14 188.76 508.84 189.15
  Q 507.60 190.79 506.75 192.75
  Q 504.31 198.39 502.11 202.77
  A 0.59 0.58 -68.5 0 1 501.43 203.07
  Q 491.82 200.37 481.21 201.43
  Q 480.73 201.48 480.32 201.22
  Q 475.20 197.83 467.86 194.61
  Q 462.68 192.34 457.84 192.21
  Q 451.92 192.05 446.09 192.76
  Q 442.59 193.19 437.77 195.46
  C 433.26 197.58 429.99 198.82 427.45 201.26
  Q 425.66 202.72 423.94 203.31
  L 395.80 192.41
  Q 395.34 192.23 395.64 191.85
  Q 400.28 185.75 406.17 180.69
  Q 424.34 182.21 436.94 182.08
  Q 459.89 181.85 482.85 181.67
  Q 486.65 181.64 499.83 180.04
  Q 500.37 179.98 499.98 179.60
  Q 496.30 176.12 491.03 173.07
  Q 482.59 168.18 473.50 165.82
  Q 472.99 165.69 472.82 165.18
  Q 472.69 164.79 472.77 164.42
  Q 492.16 169.42 506.32 183.80
  Z"
/>
<path fill="#1d4d24" d="
  M 94.85 280.70
  Q 95.79 280.16 98.14 282.80
  L 117.43 300.50
  A 0.59 0.59 0.0 0 0 118.42 300.06
  L 118.41 284.48
  L 117.82 262.31
  L 117.86 231.77
  L 118.12 210.71
  L 118.10 190.45
  L 118.15 166.43
  Q 118.15 165.90 117.62 165.90
  L 91.67 166.26
  Q 91.13 165.87 90.49 165.96
  Q 90.51 165.58 90.64 165.27
  Q 90.83 164.83 91.32 164.83
  L 118.76 164.83
  Q 119.20 164.83 119.20 165.26
  L 119.20 301.77
  A 0.60 0.59 -3.3 0 1 118.67 302.36
  Q 117.73 302.46 117.39 301.50
  A 1.58 1.57 -78.6 0 0 116.98 300.88
  L 94.85 280.70
  Z"
/>
<path fill="#4d7f50" d="
  M 184.65 177.69
  Q 185.71 174.37 187.56 172.09
  Q 190.62 169.11 192.23 164.87
  A 0.46 0.46 0.0 0 1 193.07 164.82
  Q 198.80 175.74 204.45 188.58
  Q 204.78 189.33 203.97 189.20
  L 183.13 185.85
  Q 182.63 185.77 182.75 185.27
  L 184.65 177.69
  Z"
/>
<path fill="#326637" d="
  M 335.61 165.95
  L 335.54 166.56
  Q 335.43 167.52 334.98 166.67
  L 334.79 166.33
  Q 334.53 165.85 333.99 165.85
  L 239.71 166.06
  L 229.24 165.81
  Q 228.78 165.80 228.81 166.26
  Q 228.90 167.31 228.63 168.29
  Q 228.40 166.69 228.74 165.28
  Q 228.85 164.85 229.29 164.85
  L 334.91 164.85
  Q 335.38 164.85 335.55 165.29
  Q 335.65 165.57 335.61 165.95
  Z"
/>
<path fill="#447746" d="
  M 372.24 214.21
  L 371.96 177.37
  Q 371.96 177.21 371.85 177.10
  Q 371.73 176.98 371.61 176.93
  Q 371.26 176.80 371.22 177.18
  L 370.86 180.46
  L 370.76 176.75
  L 370.84 166.62
  Q 370.84 165.92 370.14 165.92
  L 344.56 165.92
  A 0.98 0.98 0.0 0 0 343.58 166.96
  L 344.15 177.69
  L 345.14 190.48
  Q 345.18 191.01 345.71 190.97
  Q 353.07 190.40 360.32 189.24
  Q 365.77 188.37 370.80 185.68
  L 370.64 205.44
  Q 368.39 209.58 364.91 210.38
  Q 355.68 212.51 347.45 214.89
  Q 345.74 215.39 345.43 213.63
  L 342.94 199.17
  L 342.82 165.44
  A 0.58 0.58 0.0 0 1 343.40 164.86
  L 371.94 164.86
  A 0.43 0.43 0.0 0 1 372.37 165.29
  L 372.24 214.21
  Z"
/>
<path fill="#27582d" d="
  M 618.72 279.57
  Q 619.46 279.35 620.27 279.72
  L 642.75 300.55
  A 0.22 0.22 0.0 0 0 643.12 300.38
  L 643.12 277.06
  L 642.93 269.24
  Q 642.91 268.77 642.45 268.72
  L 604.85 264.62
  Q 604.21 264.55 604.66 265.00
  Q 607.42 267.78 610.36 270.25
  Q 610.73 270.57 610.84 270.93
  Q 611.04 271.64 610.51 271.82
  L 563.14 226.46
  Q 563.09 227.03 562.99 226.37
  Q 562.96 226.23 562.84 226.17
  Q 562.58 226.04 562.29 226.19
  Q 562.67 225.64 563.57 225.86
  Q 564.05 225.98 565.02 226.90
  Q 569.27 230.96 573.73 235.00
  Q 575.21 236.34 577.55 237.00
  Q 589.70 240.47 600.71 241.04
  Q 620.05 242.05 634.38 244.87
  C 636.87 245.36 640.35 245.57 642.16 245.71
  Q 642.67 245.75 642.67 245.25
  L 642.87 215.35
  L 643.10 201.48
  L 643.27 166.70
  Q 641.87 165.94 640.30 165.68
  L 616.11 165.34
  L 643.73 164.85
  Q 644.17 164.85 644.17 165.29
  L 644.17 301.84
  A 0.64 0.64 0.0 0 1 643.09 302.31
  L 618.72 279.57
  Z"
/>
<path fill="#27582d" d="
  M 239.71 166.06
  L 230.73 166.24
  Q 230.21 166.25 230.19 166.77
  L 229.84 179.45
  L 229.89 190.10
  A 0.59 0.59 0.0 0 0 230.47 190.69
  L 256.46 191.18
  L 266.62 191.39
  A 0.82 0.82 0.0 0 1 267.42 192.19
  L 267.90 220.26
  L 268.65 237.81
  Q 268.68 238.34 269.19 238.21
  Q 283.44 234.81 287.49 233.96
  Q 291.32 233.16 294.45 230.82
  Q 294.85 230.52 294.85 230.02
  L 294.79 211.98
  L 295.28 192.95
  L 296.49 192.56
  L 296.60 273.04
  L 296.15 277.88
  Q 296.12 278.17 295.85 278.07
  L 295.59 277.98
  Q 295.54 277.96 295.54 277.92
  Q 295.40 269.57 294.62 261.46
  Q 294.58 260.97 294.09 261.01
  Q 290.22 261.39 289.18 261.24
  Q 277.85 259.61 274.97 259.29
  Q 271.41 258.90 270.09 259.87
  Q 268.59 260.97 268.28 262.27
  Q 267.57 265.26 266.69 268.31
  L 266.80 192.76
  A 0.41 0.41 0.0 0 0 266.39 192.35
  L 229.30 192.35
  Q 228.61 192.35 228.61 191.65
  L 228.63 168.29
  Q 228.90 167.31 228.81 166.26
  Q 228.78 165.80 229.24 165.81
  L 239.71 166.06
  Z"
/>
<path fill="#568855" d="
  M 335.61 165.95
  L 335.63 170.71
  L 335.56 169.23
  Q 335.52 168.51 335.07 169.07
  Q 334.71 169.51 334.70 170.09
  Q 334.56 179.79 333.80 188.80
  Q 333.76 189.28 333.28 189.28
  Q 317.68 189.42 310.46 188.83
  C 297.18 187.75 275.61 183.61 258.63 182.81
  Q 244.92 182.16 230.63 184.59
  Q 230.15 184.67 230.12 184.19
  L 229.84 179.45
  L 230.19 166.77
  Q 230.21 166.25 230.73 166.24
  L 239.71 166.06
  L 333.99 165.85
  Q 334.53 165.85 334.79 166.33
  L 334.98 166.67
  Q 335.43 167.52 335.54 166.56
  L 335.61 165.95
  Z"
/>
<path fill="#4d7f50" d="
  M 640.30 165.68
  L 617.98 165.91
  Q 617.40 165.91 617.40 166.49
  L 617.40 173.34
  Q 617.40 173.84 617.87 174.01
  L 642.47 182.65
  Q 643.01 182.83 643.02 182.27
  L 643.27 166.70
  L 643.10 201.48
  L 616.06 196.53
  L 616.11 165.34
  L 640.30 165.68
  Z"
/>
<path fill="#568855" d="
  M 643.27 166.70
  L 643.02 182.27
  Q 643.01 182.83 642.47 182.65
  L 617.87 174.01
  Q 617.40 173.84 617.40 173.34
  L 617.40 166.49
  Q 617.40 165.91 617.98 165.91
  L 640.30 165.68
  Q 641.87 165.94 643.27 166.70
  Z"
/>
<path fill="#447746" d="
  M 91.67 166.26
  L 91.99 189.65
  Q 92.00 190.16 92.51 190.17
  L 118.10 190.45
  L 118.12 210.71
  L 92.39 209.41
  Q 91.91 209.39 91.89 208.90
  L 91.46 193.25
  Q 91.45 192.83 91.20 192.94
  L 91.19 192.95
  A 0.33 0.29 81.2 0 0 91.00 193.25
  L 90.92 199.25
  Q 90.91 200.55 90.62 199.30
  Q 90.54 198.96 90.67 198.45
  L 90.49 165.96
  Q 91.13 165.87 91.67 166.26
  Z"
/>
<path fill="#568855" d="
  M 118.10 190.45
  L 92.51 190.17
  Q 92.00 190.16 91.99 189.65
  L 91.67 166.26
  L 117.62 165.90
  Q 118.15 165.90 118.15 166.43
  L 118.10 190.45
  Z"
/>
<path fill="#568855" d="
  M 370.76 176.75
  Q 357.40 178.26 344.15 177.69
  L 343.58 166.96
  A 0.98 0.98 0.0 0 1 344.56 165.92
  L 370.14 165.92
  Q 370.84 165.92 370.84 166.62
  L 370.76 176.75
  Z"
/>
<path fill="#447746" d="
  M 428.80 165.88
  Q 429.65 166.01 429.31 166.59
  Q 429.16 166.84 428.78 167.02
  Q 420.73 170.82 415.63 173.63
  Q 410.58 176.41 406.17 180.69
  Q 400.28 185.75 395.64 191.85
  Q 395.34 192.23 395.80 192.41
  L 423.94 203.31
  Q 416.78 204.48 409.83 205.65
  Q 402.04 206.96 397.73 208.25
  Q 391.86 210.01 385.88 211.96
  A 0.77 0.77 0.0 0 1 384.94 210.92
  Q 386.36 207.64 384.80 207.85
  Q 387.18 201.62 391.19 195.67
  Q 405.22 174.83 428.80 165.88
  Z"
/>
<path fill="#4d7f50" d="
  M 335.63 170.71
  L 335.74 191.82
  Q 335.74 192.32 335.24 192.33
  L 296.49 192.56
  L 295.28 192.95
  Q 292.53 195.77 288.57 196.02
  Q 280.35 196.53 274.03 195.70
  Q 270.61 195.25 267.91 191.55
  A 1.01 1.00 -18.0 0 0 267.10 191.14
  L 256.46 191.18
  L 230.47 190.69
  A 0.59 0.59 0.0 0 1 229.89 190.10
  L 229.84 179.45
  L 230.12 184.19
  Q 230.15 184.67 230.63 184.59
  Q 244.92 182.16 258.63 182.81
  C 275.61 183.61 297.18 187.75 310.46 188.83
  Q 317.68 189.42 333.28 189.28
  Q 333.76 189.28 333.80 188.80
  Q 334.56 179.79 334.70 170.09
  Q 334.71 169.51 335.07 169.07
  Q 335.52 168.51 335.56 169.23
  L 335.63 170.71
  Z"
/>
<path fill="#4d7f50" d="
  M 370.76 176.75
  L 370.86 180.46
  L 370.80 185.68
  Q 365.77 188.37 360.32 189.24
  Q 353.07 190.40 345.71 190.97
  Q 345.18 191.01 345.14 190.48
  L 344.15 177.69
  Q 357.40 178.26 370.76 176.75
  Z"
/>
<path fill="#1d4d24" d="
  M 372.24 214.21
  L 372.17 301.10
  A 0.37 0.37 0.0 0 1 371.80 301.47
  L 344.00 301.47
  Q 343.14 301.47 343.16 300.61
  L 343.26 294.76
  Q 344.48 296.35 343.83 298.89
  A 1.18 1.18 0.0 0 0 345.16 300.34
  Q 346.84 300.07 349.24 300.18
  Q 359.83 300.68 366.50 300.19
  Q 366.52 300.19 369.17 300.32
  A 1.32 1.32 0.0 0 0 370.55 299.04
  L 370.85 286.31
  L 370.87 278.09
  L 370.85 265.50
  Q 370.85 265.00 370.40 264.77
  Q 355.60 257.10 342.98 246.36
  L 342.96 221.71
  Q 346.56 221.70 349.96 220.89
  Q 359.97 218.53 369.67 216.47
  A 1.53 1.52 -6.9 0 0 370.87 214.95
  L 370.64 205.44
  L 370.80 185.68
  L 370.86 180.46
  L 371.22 177.18
  Q 371.26 176.80 371.61 176.93
  Q 371.73 176.98 371.85 177.10
  Q 371.96 177.21 371.96 177.37
  L 372.24 214.21
  Z"
/>
<path fill="#326637" d="
  M 9.45 183.03
  L 9.46 188.92
  L 9.74 197.22
  L 10.08 207.35
  Q 10.10 207.84 10.59 207.92
  Q 32.08 211.09 52.89 205.04
  Q 53.36 204.90 53.02 204.54
  L 48.85 200.22
  Q 45.74 197.92 45.44 195.98
  L 66.31 215.95
  Q 70.70 222.05 76.48 227.15
  Q 76.82 227.45 76.38 227.59
  Q 63.97 231.43 59.42 231.95
  Q 53.88 232.58 49.42 231.04
  Q 45.06 229.54 37.34 226.13
  L 37.16 235.21
  L 36.78 238.99
  L 36.67 234.46
  Q 36.65 233.58 36.35 234.41
  C 35.04 238.01 33.45 240.66 30.64 241.93
  Q 22.03 245.81 11.04 250.60
  A 0.74 0.74 0.0 0 1 10.00 249.91
  Q 10.14 233.01 9.81 218.25
  Q 9.74 215.40 8.48 211.69
  L 8.61 185.52
  Q 8.99 187.26 8.80 189.03
  A 0.26 0.22 9.5 0 0 9.01 189.28
  L 9.02 189.28
  Q 9.24 189.33 9.25 189.04
  L 9.45 183.03
  Z"
/>
<path fill="#326637" d="
  M 428.29 201.71
  Q 428.28 201.58 428.26 201.43
  A 0.30 0.28 0.1 0 0 427.99 201.17
  Q 427.77 201.15 427.45 201.26
  C 429.99 198.82 433.26 197.58 437.77 195.46
  Q 442.59 193.19 446.09 192.76
  Q 451.92 192.05 457.84 192.21
  Q 462.68 192.34 467.86 194.61
  Q 475.20 197.83 480.32 201.22
  Q 480.73 201.48 481.21 201.43
  Q 491.82 200.37 501.43 203.07
  A 0.59 0.58 -68.5 0 0 502.11 202.77
  Q 504.31 198.39 506.75 192.75
  Q 507.60 190.79 508.84 189.15
  Q 509.14 188.76 508.87 188.34
  C 507.92 186.84 506.33 185.79 506.32 183.80
  L 510.00 188.17
  Q 510.37 188.61 510.02 189.06
  C 509.42 189.83 508.81 190.42 508.38 191.37
  Q 499.89 210.25 494.52 223.20
  Q 494.27 223.80 494.04 223.19
  Q 491.53 216.34 486.92 210.23
  Q 472.89 191.63 450.13 193.34
  Q 438.76 194.19 428.29 201.71
  Z"
/>
<path fill="#447746" d="
  M 578.24 203.64
  L 585.63 210.90
  Q 585.98 211.24 585.50 211.30
  C 569.29 213.48 553.27 212.25 536.59 210.24
  Q 536.10 210.18 536.07 209.69
  L 535.87 206.51
  Q 535.99 202.43 534.57 200.62
  L 534.45 190.61
  Q 542.37 199.95 554.34 201.68
  Q 566.17 203.39 578.24 203.64
  Z"
/>
<path fill="#447746" d="
  M 295.28 192.95
  L 294.79 211.98
  C 286.38 217.13 277.80 219.20 267.90 220.26
  L 267.42 192.19
  A 0.82 0.82 0.0 0 0 266.62 191.39
  L 256.46 191.18
  L 267.10 191.14
  A 1.01 1.00 -18.0 0 1 267.91 191.55
  Q 270.61 195.25 274.03 195.70
  Q 280.35 196.53 288.57 196.02
  Q 292.53 195.77 295.28 192.95
  Z"
/>
<path fill="#326637" d="
  M 207.80 192.38
  L 221.25 219.94
  Q 222.06 225.24 223.41 227.80
  Q 227.66 235.84 231.24 244.29
  Q 231.44 244.76 230.94 244.86
  Q 218.50 247.52 205.98 247.10
  L 193.65 220.35
  A 0.98 0.98 0.0 0 0 192.02 220.12
  Q 189.61 222.91 187.84 226.54
  Q 183.83 234.79 179.81 243.03
  Q 178.91 244.86 176.77 248.22
  L 150.58 247.56
  Q 158.06 232.98 165.27 218.62
  C 165.91 217.33 167.05 216.09 167.66 214.59
  Q 168.58 212.34 168.61 212.26
  Q 170.92 207.49 173.33 202.59
  Q 186.35 208.49 199.13 209.22
  Q 203.63 209.47 213.86 209.03
  Q 214.36 209.00 214.18 208.53
  Q 212.10 203.20 209.17 197.65
  Q 208.13 195.69 207.80 192.38
  Z"
/>
<path fill="#326637" d="
  M 118.12 210.71
  L 117.86 231.77
  L 92.36 226.48
  Q 91.87 226.38 91.85 225.88
  Q 91.70 222.08 91.03 218.14
  Q 90.66 215.98 90.71 218.17
  Q 90.83 223.34 90.58 227.02
  Q 90.53 227.78 90.52 227.02
  L 90.45 211.54
  L 90.67 198.45
  Q 90.54 198.96 90.62 199.30
  Q 90.91 200.55 90.92 199.25
  L 91.00 193.25
  A 0.33 0.29 81.2 0 1 91.19 192.95
  L 91.20 192.94
  Q 91.45 192.83 91.46 193.25
  L 91.89 208.90
  Q 91.91 209.39 92.39 209.41
  L 118.12 210.71
  Z"
/>
<path fill="#326637" d="
  M 524.74 215.68
  Q 522.22 219.76 516.92 218.88
  Q 511.18 217.92 507.34 216.29
  Q 506.87 216.09 507.06 215.62
  L 511.19 205.17
  L 520.00 205.98
  Q 520.57 206.03 520.35 205.50
  Q 518.52 201.07 515.66 196.91
  Q 515.26 196.33 514.97 196.97
  L 511.37 205.09
  Q 511.29 204.32 510.91 204.01
  L 514.28 195.50
  A 0.93 0.93 0.0 0 1 515.96 195.40
  Q 517.53 198.31 519.30 201.41
  Q 523.14 208.16 524.74 215.68
  Z"
/>
<path fill="#1d4d24" d="
  M 175.43 195.68
  Q 174.91 199.43 173.33 202.59
  Q 170.92 207.49 168.61 212.26
  Q 168.58 212.34 167.66 214.59
  C 167.05 216.09 165.91 217.33 165.27 218.62
  Q 158.06 232.98 150.58 247.56
  L 144.45 259.92
  L 135.35 278.02
  L 124.02 299.47
  A 0.56 0.56 0.0 0 0 124.51 300.29
  L 152.45 300.29
  Q 153.47 300.29 153.92 299.38
  L 163.22 280.61
  Q 163.43 280.19 163.76 280.52
  Q 163.85 280.62 163.93 280.80
  L 154.07 300.94
  A 0.62 0.61 -76.7 0 1 153.52 301.28
  L 123.19 301.28
  Q 122.64 301.28 122.88 300.79
  L 175.43 195.68
  Z"
/>
<path fill="#447746" d="
  M 643.10 201.48
  L 642.87 215.35
  Q 628.84 214.26 616.06 208.55
  L 616.06 196.53
  L 643.10 201.48
  Z"
/>
<path fill="#4d7f50" d="
  M 511.19 205.17
  Q 511.28 205.13 511.37 205.09
  L 514.97 196.97
  Q 515.26 196.33 515.66 196.91
  Q 518.52 201.07 520.35 205.50
  Q 520.57 206.03 520.00 205.98
  L 511.19 205.17
  Z"
/>
<path fill="#326637" d="
  M 572.03 196.57
  L 616.04 238.24
  Q 616.04 238.46 616.13 238.51
  Q 616.32 238.62 616.41 238.42
  Q 616.63 237.88 616.23 238.04
  L 616.06 208.55
  Q 628.84 214.26 642.87 215.35
  L 642.67 245.25
  Q 642.67 245.75 642.16 245.71
  C 640.35 245.57 636.87 245.36 634.38 244.87
  Q 620.05 242.05 600.71 241.04
  Q 589.70 240.47 577.55 237.00
  Q 575.21 236.34 573.73 235.00
  Q 569.27 230.96 565.02 226.90
  Q 564.05 225.98 563.57 225.86
  Q 562.67 225.64 562.29 226.19
  L 561.66 230.96
  Q 561.60 231.44 561.16 231.24
  Q 557.99 229.83 555.77 229.31
  Q 548.41 227.59 536.65 225.31
  Q 536.13 225.21 536.12 224.69
  L 535.87 206.51
  L 536.07 209.69
  Q 536.10 210.18 536.59 210.24
  C 553.27 212.25 569.29 213.48 585.50 211.30
  Q 585.98 211.24 585.63 210.90
  L 578.24 203.64
  Q 574.22 200.61 572.03 196.57
  Z"
/>
<path fill="#447746" d="
  M 48.85 200.22
  L 53.02 204.54
  Q 53.36 204.90 52.89 205.04
  Q 32.08 211.09 10.59 207.92
  Q 10.10 207.84 10.08 207.35
  L 9.74 197.22
  Q 29.00 200.90 48.85 200.22
  Z"
/>
<path fill="#326637" d="
  M 370.64 205.44
  L 370.87 214.95
  A 1.53 1.52 -6.9 0 1 369.67 216.47
  Q 359.97 218.53 349.96 220.89
  Q 346.56 221.70 342.96 221.71
  L 342.94 199.17
  L 345.43 213.63
  Q 345.74 215.39 347.45 214.89
  Q 355.68 212.51 364.91 210.38
  Q 368.39 209.58 370.64 205.44
  Z"
/>
<path fill="#1d4d24" d="
  M 535.87 206.51
  L 536.12 224.69
  Q 536.13 225.21 536.65 225.31
  Q 548.41 227.59 555.77 229.31
  Q 557.99 229.83 561.16 231.24
  Q 561.60 231.44 561.66 230.96
  L 562.29 226.19
  Q 562.58 226.04 562.84 226.17
  Q 562.96 226.23 562.99 226.37
  Q 563.09 227.03 563.14 226.46
  L 563.08 301.24
  A 0.34 0.34 0.0 0 1 562.74 301.58
  L 547.82 301.55
  Q 548.12 300.25 552.01 300.63
  L 561.15 300.68
  A 1.08 1.08 0.0 0 0 562.24 299.55
  L 561.95 292.98
  L 561.86 279.76
  Q 561.89 270.67 561.93 261.49
  Q 561.94 259.51 561.45 255.60
  Q 561.39 255.10 560.91 254.98
  Q 545.72 251.17 534.57 262.26
  L 534.57 200.62
  Q 535.99 202.43 535.87 206.51
  Z"
/>
<path fill="#1d4d24" d="
  M 427.45 201.26
  Q 427.77 201.15 427.99 201.17
  A 0.30 0.28 0.1 0 1 428.26 201.43
  Q 428.28 201.58 428.29 201.71
  Q 421.40 207.20 416.74 215.48
  Q 413.51 221.23 411.96 224.46
  Q 397.83 253.77 383.57 283.65
  Q 384.61 277.54 388.53 271.32
  L 395.57 254.05
  Q 395.79 253.49 395.20 253.57
  Q 388.45 254.48 382.56 257.68
  Q 382.12 257.92 382.12 258.41
  L 382.08 269.99
  Q 381.14 278.09 382.36 285.92
  Q 382.28 287.52 381.31 289.03
  Q 380.28 290.64 380.21 288.73
  Q 380.20 288.41 380.48 287.65
  Q 380.68 287.10 380.68 286.58
  Q 380.32 255.90 380.04 249.75
  Q 379.34 234.49 380.34 224.61
  Q 381.06 217.50 384.80 207.85
  Q 386.36 207.64 384.94 210.92
  A 0.77 0.77 0.0 0 0 385.88 211.96
  Q 391.86 210.01 397.73 208.25
  Q 402.04 206.96 409.83 205.65
  Q 416.78 204.48 423.94 203.31
  Q 425.66 202.72 427.45 201.26
  Z"
/>
<path fill="#1d4d24" d="
  M 510.91 204.01
  Q 511.29 204.32 511.37 205.09
  Q 511.28 205.13 511.19 205.17
  L 507.06 215.62
  Q 506.87 216.09 507.34 216.29
  Q 511.18 217.92 516.92 218.88
  Q 522.22 219.76 524.74 215.68
  Q 527.49 229.35 525.86 243.01
  L 490.00 252.27
  L 510.91 204.01
  Z"
/>
<path fill="#27582d" d="
  M 36.78 238.99
  L 36.58 241.79
  L 36.40 252.86
  Q 36.39 253.36 35.93 253.54
  L 8.52 264.23
  L 8.48 211.69
  Q 9.74 215.40 9.81 218.25
  Q 10.14 233.01 10.00 249.91
  A 0.74 0.74 0.0 0 0 11.04 250.60
  Q 22.03 245.81 30.64 241.93
  C 33.45 240.66 35.04 238.01 36.35 234.41
  Q 36.65 233.58 36.67 234.46
  L 36.78 238.99
  Z"
/>
<path fill="#27582d" d="
  M 90.45 211.54
  L 90.52 227.02
  Q 90.53 227.78 90.58 227.02
  Q 90.83 223.34 90.71 218.17
  Q 90.66 215.98 91.03 218.14
  Q 91.70 222.08 91.85 225.88
  Q 91.87 226.38 92.36 226.48
  L 117.86 231.77
  L 117.82 262.31
  Q 111.52 260.29 107.38 259.61
  Q 98.62 258.18 86.53 257.38
  Q 81.32 257.03 77.25 257.86
  Q 75.02 258.32 72.50 260.08
  L 37.34 226.13
  Q 45.06 229.54 49.42 231.04
  Q 53.88 232.58 59.42 231.95
  Q 63.97 231.43 76.38 227.59
  Q 76.82 227.45 76.48 227.15
  Q 70.70 222.05 66.31 215.95
  L 90.23 238.75
  Q 90.58 239.08 90.58 238.60
  L 90.45 211.54
  Z"
/>
<path fill="#326637" d="
  M 294.79 211.98
  L 294.85 230.02
  Q 294.85 230.52 294.45 230.82
  Q 291.32 233.16 287.49 233.96
  Q 283.44 234.81 269.19 238.21
  Q 268.68 238.34 268.65 237.81
  L 267.90 220.26
  C 277.80 219.20 286.38 217.13 294.79 211.98
  Z"
/>
<path fill="#1d4d24" d="
  M 205.98 247.10
  L 209.63 255.80
  A 0.46 0.46 0.0 0 1 209.24 256.44
  Q 194.85 257.37 180.27 256.88
  Q 176.75 256.76 174.10 256.16
  A 0.65 0.65 0.0 0 1 173.65 255.26
  L 176.77 248.22
  Q 178.91 244.86 179.81 243.03
  Q 183.83 234.79 187.84 226.54
  Q 189.61 222.91 192.02 220.12
  A 0.98 0.98 0.0 0 1 193.65 220.35
  L 205.98 247.10
  Z
  M 175.13 255.28
  A 0.31 0.31 0.0 0 0 175.40 255.73
  L 208.59 256.07
  A 0.31 0.31 0.0 0 0 208.87 255.63
  L 192.64 220.58
  A 0.31 0.31 0.0 0 0 192.08 220.58
  L 175.13 255.28
  Z"
/>
<path fill="#27582d" d="
  M 221.25 219.94
  L 260.51 300.50
  Q 260.92 301.33 259.99 301.33
  L 229.48 301.33
  Q 228.94 301.33 228.70 300.85
  L 221.73 286.94
  Q 221.82 286.78 222.37 286.57
  L 228.66 299.36
  A 1.56 1.56 0.0 0 0 230.12 300.23
  Q 244.02 299.73 258.19 300.46
  A 0.87 0.87 0.0 0 0 259.01 299.20
  L 249.30 279.79
  L 237.76 256.80
  Q 237.54 256.35 237.04 256.42
  Q 213.75 259.73 205.85 260.33
  Q 175.10 262.68 144.45 259.92
  L 150.58 247.56
  L 176.77 248.22
  L 173.65 255.26
  A 0.65 0.65 0.0 0 0 174.10 256.16
  Q 176.75 256.76 180.27 256.88
  Q 194.85 257.37 209.24 256.44
  A 0.46 0.46 0.0 0 0 209.63 255.80
  L 205.98 247.10
  Q 218.50 247.52 230.94 244.86
  Q 231.44 244.76 231.24 244.29
  Q 227.66 235.84 223.41 227.80
  Q 222.06 225.24 221.25 219.94
  Z"
/>
<path fill="#fcfcfc" d="
  M 175.13 255.28
  L 192.08 220.58
  A 0.31 0.31 0.0 0 1 192.64 220.58
  L 208.87 255.63
  A 0.31 0.31 0.0 0 1 208.59 256.07
  L 175.40 255.73
  A 0.31 0.31 0.0 0 1 175.13 255.28
  Z"
/>
<path fill="#447746" d="
  M 37.16 235.21
  L 37.09 283.99
  Q 33.71 289.44 27.57 289.75
  Q 17.07 290.29 10.50 290.93
  Q 10.00 290.97 9.99 291.48
  L 9.78 299.71
  L 9.86 278.28
  Q 9.86 277.77 10.34 277.59
  Q 22.87 272.97 36.07 270.11
  Q 36.56 270.01 36.56 269.50
  L 36.58 241.79
  L 36.78 238.99
  L 37.16 235.21
  Z"
/>
<path fill="#568855" d="
  M 616.04 238.24
  Q 616.16 238.19 616.23 238.04
  Q 616.63 237.88 616.41 238.42
  Q 616.32 238.62 616.13 238.51
  Q 616.04 238.46 616.04 238.24
  Z"
/>
<path fill="#27582d" d="
  M 490.00 252.27
  L 525.86 243.01
  Q 523.94 255.89 517.93 266.76
  C 500.78 270.91 485.49 272.16 466.87 273.46
  Q 466.76 273.47 458.40 274.35
  Q 450.94 275.14 442.99 273.42
  Q 437.62 272.26 434.83 272.10
  Q 416.70 271.08 399.17 273.45
  Q 398.67 273.52 398.32 273.88
  Q 396.52 275.76 398.46 278.04
  Q 406.38 287.34 416.23 293.14
  Q 421.30 296.20 426.59 298.72
  Q 427.03 298.94 426.52 299.52
  Q 409.17 292.24 397.20 277.79
  Q 396.64 277.12 396.47 276.12
  Q 396.34 275.35 396.75 274.39
  Q 402.71 260.51 412.11 240.14
  Q 412.90 238.42 413.27 240.27
  C 416.69 257.15 428.96 269.57 446.02 272.67
  C 463.79 275.91 481.18 268.29 490.00 252.27
  Z"
/>
<path fill="#326637" d="
  M 36.58 241.79
  L 36.56 269.50
  Q 36.56 270.01 36.07 270.11
  Q 22.87 272.97 10.34 277.59
  Q 9.86 277.77 9.86 278.28
  L 9.78 299.71
  Q 17.92 300.17 26.08 300.49
  Q 28.75 300.59 31.29 301.42
  L 8.96 301.37
  A 0.38 0.37 0.8 0 1 8.59 301.00
  L 8.52 264.23
  L 35.93 253.54
  Q 36.39 253.36 36.40 252.86
  L 36.58 241.79
  Z"
/>
<path fill="#27582d" d="
  M 370.87 278.09
  C 362.42 271.93 353.51 267.77 343.69 273.31
  Q 343.24 273.56 343.23 274.06
  L 343.13 279.29
  L 342.98 246.36
  Q 355.60 257.10 370.40 264.77
  Q 370.85 265.00 370.85 265.50
  L 370.87 278.09
  Z"
/>
<path fill="#27582d" d="
  M 388.53 271.32
  Q 385.64 268.84 382.08 269.99
  L 382.12 258.41
  Q 382.12 257.92 382.56 257.68
  Q 388.45 254.48 395.20 253.57
  Q 395.79 253.49 395.57 254.05
  L 388.53 271.32
  Z"
/>
<path fill="#27582d" d="
  M 561.86 279.76
  Q 559.95 272.13 551.86 274.35
  Q 544.46 276.39 536.68 277.03
  Q 536.17 277.08 536.16 277.58
  L 535.73 293.06
  L 535.34 299.82
  Q 535.29 300.60 536.07 300.60
  L 552.01 300.63
  Q 548.12 300.25 547.82 301.55
  L 535.24 301.53
  Q 534.74 301.53 534.74 301.02
  L 534.57 262.26
  Q 545.72 251.17 560.91 254.98
  Q 561.39 255.10 561.45 255.60
  Q 561.94 259.51 561.93 261.49
  Q 561.89 270.67 561.86 279.76
  Z"
/>
<path fill="#326637" d="
  M 117.82 262.31
  L 118.41 284.48
  L 98.14 282.80
  Q 95.79 280.16 94.85 280.70
  L 72.50 260.08
  Q 75.02 258.32 77.25 257.86
  Q 81.32 257.03 86.53 257.38
  Q 98.62 258.18 107.38 259.61
  Q 111.52 260.29 117.82 262.31
  Z"
/>
<path fill="#326637" d="
  M 249.30 279.79
  Q 234.39 277.26 219.37 279.31
  Q 218.87 279.37 219.09 279.82
  L 222.37 286.57
  Q 221.82 286.78 221.73 286.94
  L 218.28 280.39
  A 1.06 1.06 0.0 0 0 217.38 279.83
  L 207.54 279.66
  L 167.88 279.61
  Q 161.99 279.60 167.81 278.42
  Q 170.81 277.82 177.44 277.79
  Q 186.37 277.75 189.86 277.86
  Q 194.58 278.01 189.93 277.22
  C 183.25 276.08 175.72 276.57 169.74 276.40
  Q 161.57 276.17 156.21 276.74
  Q 153.33 277.04 142.84 279.18
  Q 139.42 279.88 135.35 278.02
  L 144.45 259.92
  Q 175.10 262.68 205.85 260.33
  Q 213.75 259.73 237.04 256.42
  Q 237.54 256.35 237.76 256.80
  L 249.30 279.79
  Z"
/>
<path fill="#326637" d="
  M 296.60 273.04
  L 296.63 287.68
  Q 292.86 282.04 287.13 280.90
  Q 277.03 278.89 272.87 278.32
  Q 269.59 277.87 267.86 280.35
  Q 267.57 280.77 267.57 281.28
  L 267.57 298.01
  Q 267.57 298.99 266.83 298.35
  L 266.44 298.01
  L 266.69 268.31
  Q 267.57 265.26 268.28 262.27
  Q 268.59 260.97 270.09 259.87
  Q 271.41 258.90 274.97 259.29
  Q 277.85 259.61 289.18 261.24
  Q 290.22 261.39 294.09 261.01
  Q 294.58 260.97 294.62 261.46
  Q 295.40 269.57 295.54 277.92
  Q 295.54 277.96 295.59 277.98
  L 295.85 278.07
  Q 296.12 278.17 296.15 277.88
  L 296.60 273.04
  Z"
/>
<path fill="#326637" d="
  M 643.12 277.06
  L 620.27 279.72
  Q 619.46 279.35 618.72 279.57
  L 610.51 271.82
  Q 611.04 271.64 610.84 270.93
  Q 610.73 270.57 610.36 270.25
  Q 607.42 267.78 604.66 265.00
  Q 604.21 264.55 604.85 264.62
  L 642.45 268.72
  Q 642.91 268.77 642.93 269.24
  L 643.12 277.06
  Z"
/>
<path fill="#326637" d="
  M 370.87 278.09
  L 370.85 286.31
  Q 367.71 281.85 362.22 280.11
  Q 356.32 278.23 352.94 277.36
  Q 350.10 276.63 348.57 277.09
  Q 346.39 277.75 344.63 279.60
  Q 343.35 280.93 343.26 284.00
  Q 343.14 288.13 343.13 292.29
  L 343.13 279.29
  L 343.23 274.06
  Q 343.24 273.56 343.69 273.31
  C 353.51 267.77 362.42 271.93 370.87 278.09
  Z"
/>
<path fill="#326637" d="
  M 517.93 266.76
  Q 510.74 279.42 498.29 288.54
  Q 488.55 295.68 479.02 299.34
  L 493.23 290.68
  Q 493.67 290.41 493.15 290.40
  C 477.67 290.11 458.92 290.30 446.01 290.68
  Q 431.08 291.11 416.23 293.14
  Q 406.38 287.34 398.46 278.04
  Q 396.52 275.76 398.32 273.88
  Q 398.67 273.52 399.17 273.45
  Q 416.70 271.08 434.83 272.10
  Q 437.62 272.26 442.99 273.42
  Q 450.94 275.14 458.40 274.35
  Q 466.76 273.47 466.87 273.46
  C 485.49 272.16 500.78 270.91 517.93 266.76
  Z"
/>
<path fill="#447746" d="
  M 388.53 271.32
  Q 384.61 277.54 383.57 283.65
  Q 383.51 284.64 382.36 285.92
  Q 381.14 278.09 382.08 269.99
  Q 385.64 268.84 388.53 271.32
  Z"
/>
<path fill="#326637" d="
  M 561.86 279.76
  L 561.95 292.98
  Q 548.82 292.08 535.73 293.06
  L 536.16 277.58
  Q 536.17 277.08 536.68 277.03
  Q 544.46 276.39 551.86 274.35
  Q 559.95 272.13 561.86 279.76
  Z"
/>
<path fill="#447746" d="
  M 370.85 286.31
  L 370.55 299.04
  A 1.32 1.32 0.0 0 1 369.17 300.32
  Q 366.52 300.19 366.50 300.19
  Q 359.83 300.68 349.24 300.18
  Q 346.84 300.07 345.16 300.34
  A 1.18 1.18 0.0 0 1 343.83 298.89
  Q 344.48 296.35 343.26 294.76
  Q 342.97 293.80 343.13 292.29
  Q 343.14 288.13 343.26 284.00
  Q 343.35 280.93 344.63 279.60
  Q 346.39 277.75 348.57 277.09
  Q 350.10 276.63 352.94 277.36
  Q 356.32 278.23 362.22 280.11
  Q 367.71 281.85 370.85 286.31
  Z"
/>
<path fill="#447746" d="
  M 207.54 279.66
  Q 186.15 279.82 164.75 279.68
  Q 164.07 279.67 163.93 280.80
  Q 163.85 280.62 163.76 280.52
  Q 163.43 280.19 163.22 280.61
  L 153.92 299.38
  Q 153.47 300.29 152.45 300.29
  L 124.51 300.29
  A 0.56 0.56 0.0 0 1 124.02 299.47
  L 135.35 278.02
  Q 139.42 279.88 142.84 279.18
  Q 153.33 277.04 156.21 276.74
  Q 161.57 276.17 169.74 276.40
  C 175.72 276.57 183.25 276.08 189.93 277.22
  Q 194.58 278.01 189.86 277.86
  Q 186.37 277.75 177.44 277.79
  Q 170.81 277.82 167.81 278.42
  Q 161.99 279.60 167.88 279.61
  L 207.54 279.66
  Z"
/>
<path fill="#447746" d="
  M 249.30 279.79
  L 259.01 299.20
  A 0.87 0.87 0.0 0 1 258.19 300.46
  Q 244.02 299.73 230.12 300.23
  A 1.56 1.56 0.0 0 1 228.66 299.36
  L 222.37 286.57
  L 219.09 279.82
  Q 218.87 279.37 219.37 279.31
  Q 234.39 277.26 249.30 279.79
  Z"
/>
<path fill="#447746" d="
  M 296.63 287.68
  L 297.10 300.67
  A 0.76 0.76 0.0 0 1 296.34 301.46
  L 267.02 301.46
  A 0.67 0.67 0.0 0 1 266.35 300.77
  L 266.44 298.01
  L 266.83 298.35
  Q 267.57 298.99 267.57 298.01
  L 267.57 281.28
  Q 267.57 280.77 267.86 280.35
  Q 269.59 277.87 272.87 278.32
  Q 277.03 278.89 287.13 280.90
  Q 292.86 282.04 296.63 287.68
  Z"
/>
<path fill="#447746" d="
  M 643.12 277.06
  L 643.12 300.38
  A 0.22 0.22 0.0 0 1 642.75 300.55
  L 620.27 279.72
  L 643.12 277.06
  Z"
/>
<path fill="#447746" d="
  M 118.41 284.48
  L 118.42 300.06
  A 0.59 0.59 0.0 0 1 117.43 300.50
  L 98.14 282.80
  L 118.41 284.48
  Z"
/>
<path fill="#4d7f50" d="
  M 37.09 283.99
  L 37.07 301.03
  A 0.43 0.43 0.0 0 1 36.64 301.46
  L 31.29 301.42
  Q 28.75 300.59 26.08 300.49
  Q 17.92 300.17 9.78 299.71
  L 9.99 291.48
  Q 10.00 290.97 10.50 290.93
  Q 17.07 290.29 27.57 289.75
  Q 33.71 289.44 37.09 283.99
  Z"
/>
<path fill="#447746" d="
  M 479.02 299.34
  Q 473.05 301.73 466.63 302.88
  Q 446.02 306.55 426.52 299.52
  Q 427.03 298.94 426.59 298.72
  Q 421.30 296.20 416.23 293.14
  Q 431.08 291.11 446.01 290.68
  C 458.92 290.30 477.67 290.11 493.15 290.40
  Q 493.67 290.41 493.23 290.68
  L 479.02 299.34
  Z"
/>
<path fill="#447746" d="
  M 561.95 292.98
  L 562.24 299.55
  A 1.08 1.08 0.0 0 1 561.15 300.68
  L 552.01 300.63
  L 536.07 300.60
  Q 535.29 300.60 535.34 299.82
  L 535.73 293.06
  Q 548.82 292.08 561.95 292.98
  Z"
/>
</svg>
